<svg class="icon" viewBox="0 0 1024 1024" xmlns="http://www.w3.org/2000/svg" width="24" height="24"><defs><style/></defs><path d="M873.78 873.78C773.53 973.925 653.004 1024 512 1024c-141.005 0-261.53-50.074-361.78-150.22C50.075 773.53 0 653.004 0 512c0-140.902 50.074-261.53 150.22-361.78C250.47 50.075 370.996 0 512 0c141.005 0 261.53 50.074 361.78 150.22C973.925 250.47 1024 371.099 1024 512c0 141.005-50.074 261.53-150.22 361.78zm-851.56-384h979.457v44.543H22.22V489.78zm820.942-308.942C752.23 90.01 641.843 44.544 512 44.544S271.77 90.01 180.838 180.838C90.01 271.77 44.544 382.157 44.544 512S90.01 752.333 180.838 843.162C271.77 933.99 382.157 979.456 512 979.456s240.23-45.466 331.162-136.397C933.99 752.333 979.456 641.843 979.456 512c0-129.843-45.466-240.23-136.294-331.162zm-706.868 25.088l22.221-38.912c92.877 51.917 210.637 77.824 353.485 77.824s260.608-26.01 353.382-77.926l22.221 38.912C787.456 261.53 662.221 289.382 512 289.382c-150.22 0-275.456-27.852-375.706-83.456zm729.088 651.162C772.608 805.171 654.848 779.162 512 779.162s-260.608 26.01-353.382 77.926l-22.221-38.912C238.387 762.47 363.622 734.618 512 734.618c150.22 0 275.456 27.852 375.706 83.456l-22.324 39.014zm-164.147 19.456C649.318 974.848 586.24 1024 512 1024s-137.318-49.664-189.235-148.89c-51.917-99.123-77.927-220.262-77.927-363.11s26.01-263.885 77.927-363.11C374.682 49.664 437.76 0 512 0s137.318 49.664 189.235 148.89c51.917 99.225 77.927 220.262 77.927 363.11s-26.01 264.294-77.927 364.544zm-33.382-692.94C623.309 90.93 571.392 44.543 512 44.543s-111.309 46.387-155.853 139.06C311.603 276.48 289.382 385.843 289.382 512c0 126.157 22.221 235.622 66.765 328.294C400.691 933.171 452.608 979.456 512 979.456s111.309-46.285 155.853-139.162c44.544-92.672 66.765-202.137 66.765-328.294 0-126.157-22.221-235.52-66.765-328.397zM489.779 22.22h44.544v979.456H489.78V22.22z"/></svg>