<svg id="Layer_1" enable-background="new 0 0 512 512" height="512" viewBox="0 0 512 512" width="512" xmlns="http://www.w3.org/2000/svg">
<g clip-rule="evenodd" fill-rule="evenodd"><ellipse cx="256" cy="256" fill="#ff405c" rx="256" ry="256" transform="matrix(.707 -.707 .707 .707 -106.039 256)"/><path d="m328.191 501.619c92.987-27.376 164.127-106.231 180.314-203.439l-111.44-111.44c-13.756-16.661-34.562-27.298-57.806-27.298-2.384 0-4.756.118-7.107.348l-20.058-20.058.014.017c-16.827-18.756-42.466-30.366-70.576-30.366-45.932 0-84.013 30.99-89.992 71.058-30.49 5.314-53.741 31.971-53.741 63.959 0 19.019 8.222 36.153 21.297 48.038l105.564 105.564c.478.613 1.014 1.179 1.605 1.691z" fill="#d01273"/><path d="m339.258 285.32h-76.27v-53.507c0-5.207-3.361-9.816-8.31-11.416s-10.37.172-13.419 4.395l-43.663 60.528h-34.868c-22.57 0-40.929-18.355-40.929-40.921s18.36-40.925 40.929-40.925c6.619 0 11.999-5.372 11.999-11.999 0-32.033 29.969-58.091 66.803-58.091 27.256 0 51.238 14.186 61.538 35.439-11.629 6.422-21.569 15.897-28.487 27.687-3.353 5.716-1.445 13.066 4.28 16.423 5.708 3.348 13.066 1.436 16.419-4.28 9.118-15.549 25.98-25.208 43.978-25.208 28.089 0 50.942 22.849 50.942 50.938 0 28.088-22.853 50.937-50.942 50.937zm-93.14 69.011 33.42-45.009h-28.549c-6.632 0-11.999-5.372-11.999-12.003v-28.356l-31.84 44.151h26.969c6.631 0 11.999 5.372 11.999 11.999zm93.14-194.889c-4.567 0-9.09.435-13.509 1.251-13.669-30.682-46.748-51.311-84.218-51.311-45.932 0-84.013 30.99-89.992 71.058-30.49 5.314-53.741 31.971-53.741 63.959 0 35.8 29.131 64.923 64.931 64.923h17.559l-6.32 8.77c-2.639 3.652-3.012 8.474-.952 12.487 2.052 4.009 6.172 6.533 10.682 6.533h38.422v53.507c0 5.175 3.32 9.771 8.227 11.396 1.239.406 2.512.607 3.771.607 3.722 0 7.317-1.744 9.631-4.851l65.678-88.449h29.829c41.323 0 74.94-33.617 74.94-74.94.002-41.323-33.615-74.94-74.938-74.94z" fill="#fff"/></g></svg>