<svg id="Capa_1" enable-background="new 0 0 512 512" height="512" viewBox="0 0 512 512" width="512" xmlns="http://www.w3.org/2000/svg"><g><g><path d="m326 203.096c0-88.365-31.34-160-70-160s-70 71.635-70 160c0 54.359 11.861 102.38 29.989 131.292 12.843 20.481 20.011 44.006 20.011 68.181v.527c0 11.046 8.954 20 20 20 11.046 0 20-8.954 20-20v-.527c0-24.175 7.168-47.699 20.011-68.181 18.128-28.912 29.989-76.933 29.989-131.292z" fill="#d5ffab"/></g><g><path d="m265.887 334.388c-18.129-28.912-29.989-76.933-29.989-131.292 0-68.275 18.712-126.552 45.051-149.526-7.75-6.76-16.159-10.474-24.949-10.474-38.66 0-70 71.635-70 160 0 54.359 11.861 102.38 29.99 131.292 12.842 20.481 20.01 44.006 20.01 68.181v.527c0 11.046 8.954 20 20 20s20-8.954 20-20v-.527c0-11.784 1.715-23.41 4.949-34.608-3.4-11.775-8.48-23.075-15.062-33.573z" fill="#c2fa93"/></g><g><path d="m231.052 97.676c-4.143 0-7.5 3.357-7.5 7.5v12c0 4.143 3.357 7.5 7.5 7.5s7.5-3.357 7.5-7.5v-12c0-4.143-3.358-7.5-7.5-7.5z"/><path d="m273.448 105.176v12c0 4.143 3.357 7.5 7.5 7.5s7.5-3.357 7.5-7.5v-12c0-4.143-3.357-7.5-7.5-7.5s-7.5 3.357-7.5 7.5z"/><path d="m437.082 147.75c-38.91 0-70.566-31.656-70.566-70.566v-30.65c0-25.659-20.875-46.534-46.535-46.534-23.39 0-42.797 17.349-46.047 39.854-5.778-2.813-11.783-4.258-17.935-4.258s-12.157 1.444-17.935 4.258c-3.249-22.505-22.656-39.854-46.046-39.854-25.658 0-46.533 20.875-46.533 46.533v30.65c0 38.91-31.656 70.566-70.566 70.566-4.143 0-7.5 3.357-7.5 7.5s3.357 7.5 7.5 7.5c47.182 0 85.566-38.385 85.566-85.566v-30.65c0-17.388 14.146-31.533 31.534-31.533s31.533 14.146 31.533 31.533v3.737c-8.953 8.653-17.058 20.995-23.921 36.682-13.626 31.148-21.131 72.395-21.131 116.144 0 53.612 11.64 104.183 31.135 135.276 12.342 19.682 18.865 41.881 18.865 64.196v.527c0 5.702 1.745 11.004 4.729 15.401-22.605 21.863-35.435 51.907-35.435 83.6v2.403c0 4.143 3.357 7.5 7.5 7.5s7.5-3.357 7.5-7.5v-2.403c0-28.131 11.599-54.774 31.992-73.901 1.196.536 2.436.989 3.714 1.352v74.953c0 4.143 3.357 7.5 7.5 7.5s7.5-3.357 7.5-7.5v-74.953c1.278-.363 2.519-.816 3.714-1.352 20.393 19.127 31.992 45.77 31.992 73.901v2.403c0 4.143 3.357 7.5 7.5 7.5s7.5-3.357 7.5-7.5v-2.403c0-31.693-12.829-61.738-35.435-83.6 2.983-4.397 4.729-9.699 4.729-15.401v-.527c0-22.315 6.523-44.515 18.865-64.196 19.495-31.094 31.135-81.664 31.135-135.276 0-43.749-7.505-84.996-21.131-116.144-6.863-15.687-14.968-28.029-23.921-36.682v-3.737c0-17.388 14.146-31.533 31.534-31.533s31.533 14.146 31.533 31.533v30.65c0 47.182 38.385 85.566 85.566 85.566 4.143 0 7.5-3.357 7.5-7.5s-3.356-7.499-7.499-7.499zm-126.362 127.846h-109.44c-1.829-7.992-3.352-16.357-4.555-25h118.55c-1.202 8.642-2.726 17.008-4.555 25zm-115.732-40c-.756-8.169-1.225-16.528-1.402-25h124.829c-.177 8.472-.646 16.831-1.402 25zm123.434-40h-124.844c.17-8.628.628-16.972 1.349-25h122.146c.721 8.028 1.18 16.372 1.349 25zm-28.766 134.807c-13.841 22.073-21.156 47.027-21.156 72.165v.527c0 6.893-5.607 12.5-12.5 12.5s-12.5-5.607-12.5-12.5v-.527c0-25.138-7.315-50.092-21.156-72.165-6.816-10.87-12.593-24.418-17.148-39.808h101.608c-4.554 15.39-10.332 28.938-17.148 39.808zm25.722-174.807h-118.756c8.804-64.357 34.797-105 59.378-105s50.574 40.643 59.378 105z"/></g></g></svg>