<?xml version="1.0" standalone="no"?><!DOCTYPE svg PUBLIC "-//W3C//DTD SVG 1.1//EN" "http://www.w3.org/Graphics/SVG/1.1/DTD/svg11.dtd"><svg t="1623743008713" class="icon" viewBox="0 0 1024 1024" version="1.1" xmlns="http://www.w3.org/2000/svg" p-id="30778" xmlns:xlink="http://www.w3.org/1999/xlink" width="24" height="24"><defs><style type="text/css"></style></defs><path d="M466.76 466.74c-25 25-25 65.52 0 90.5 24.98 25 65.52 25 90.5 0 25-25 25-65.52 0-90.5-25-24.98-65.52-24.98-90.5 0zM512 16C238.06 16 16 238.06 16 512s222.06 496 496 496 496-222.06 496-496S785.94 16 512 16z m252.28 296.1L632.34 600.8a63.876 63.876 0 0 1-31.54 31.54l-288.68 131.94c-33.3 15.22-67.62-19.1-52.4-52.4l131.96-288.7a63.876 63.876 0 0 1 31.54-31.54l288.68-131.94c33.3-15.2 67.6 19.1 52.38 52.4z" p-id="30779"></path></svg>