<?xml version="1.0" encoding="iso-8859-1"?>
<!-- Generator: Adobe Illustrator 19.0.0, SVG Export Plug-In . SVG Version: 6.00 Build 0)  -->
<svg version="1.1" id="Capa_1" xmlns="http://www.w3.org/2000/svg" xmlns:xlink="http://www.w3.org/1999/xlink" x="0px" y="0px"
	 viewBox="0 0 511.99 511.99" style="enable-background:new 0 0 511.99 511.99;" xml:space="preserve">
<rect x="384.648" y="110.824" transform="matrix(0.7071 -0.7071 0.7071 0.7071 32.6953 332.6217)" style="fill:#A7B7C6;" width="66.419" height="32.04"/>
<path style="fill:#E4E9F4;" d="M447.663,132.346l-35.307-35.307c-5.892-5.892-5.892-15.445,0-21.337l1.453-1.453
	c5.892-5.892,15.445-5.892,21.337,0l35.307,35.307c5.892,5.892,5.892,15.445,0,21.337L469,132.346
	C463.108,138.238,453.555,138.238,447.663,132.346z"/>
<path style="fill:#CDD2DF;" d="M469.727,108.829L455.308,94.41c6.293,6.293,6.293,16.497,0,22.79l0,0
	c-6.293,6.293-16.496,6.294-22.79,0.001l14.419,14.419c6.293,6.294,16.497,6.294,22.79,0l0,0
	C476.02,125.326,476.02,115.123,469.727,108.829z"/>
<rect x="238.902" y="32.04" style="fill:#A7B7C6;" width="32.04" height="61.41"/>
<path style="fill:#E4E9F4;" d="M279.977,48.064H229.87c-8.284,0-15-6.716-15-15V15c0-8.284,6.716-15,15-15h50.107
	c8.284,0,15,6.716,15,15v18.064C294.977,41.348,288.262,48.064,279.977,48.064z"/>
<path style="fill:#CDD2DF;" d="M278.956,0h-32.043c8.848,0,16.021,7.173,16.021,16.021v16.021c0,8.848-7.173,16.021-16.021,16.021
	h32.043c8.848,0,16.021-7.173,16.021-16.021v-16.02C294.977,7.173,287.804,0,278.956,0z"/>
<ellipse transform="matrix(0.7071 -0.7071 0.7071 0.7071 -130.2318 266.017)" style="fill:#FFC13F;" cx="255.995" cy="290.212" rx="221.928" ry="221.628"/>
<path style="fill:#FF9416;" d="M412.92,133.293c-47.709-47.709-111.785-69.078-174.205-64.146
	c24.688,11.782,47.828,27.876,68.27,48.318c96.608,96.608,96.501,253.346-0.237,350.084c-18.157,18.157-38.429,32.909-60.019,44.258
	c59.754,2.402,120.324-19.217,165.979-64.871C499.376,360.267,499.471,219.844,412.92,133.293z"/>
<circle style="fill:#E4E9F4;" cx="256.912" cy="290.07" r="178.91"/>
<path style="fill:#CDD2DF;" d="M308.102,118.611c92.876,94.064,94.947,244.125,6.29,340.929
	C385,435.598,435.815,368.769,435.815,290.071C435.815,209.056,381.96,140.63,308.102,118.611z"/>
<path style="fill:#7A6CF7;" d="M254.924,278.707c-4.424,0-8.011-3.586-8.011-8.011v-89.72c0-4.425,3.587-8.011,8.011-8.011
	c4.424,0,8.011,3.586,8.011,8.011v89.72C262.935,275.121,259.348,278.707,254.924,278.707z"/>
<g>
	<circle style="fill:#555E6B;" cx="255.992" cy="290.22" r="24.03"/>
	<path style="fill:#555E6B;" d="M366.735,178.734c1.564,1.565,3.614,2.347,5.664,2.347s4.1-0.782,5.664-2.346l10.158-10.158
		c-3.63-3.921-7.427-7.683-11.392-11.267l-10.095,10.095C363.606,170.534,363.606,175.606,366.735,178.734z"/>
	<path style="fill:#555E6B;" d="M412.851,289.002c0,4.425,3.587,8.011,8.011,8.011h14.807c0.088-2.305,0.147-4.617,0.147-6.943
		c0-3.045-0.078-6.071-0.228-9.079h-14.726C416.438,280.992,412.851,284.578,412.851,289.002z"/>
	<path style="fill:#555E6B;" d="M256.91,134.129c4.424,0,8.011-3.586,8.011-8.011v-14.766c-2.657-0.117-5.325-0.187-8.011-0.187
		c-2.686,0-5.354,0.07-8.011,0.187v14.766C248.899,130.543,252.486,134.129,256.91,134.129z"/>
	<path style="fill:#555E6B;" d="M95.094,297.013c4.424,0,8.011-3.586,8.011-8.011s-3.587-8.011-8.011-8.011H79.073
		c-0.284,0-0.565,0.016-0.842,0.045c-0.149,2.993-0.226,6.004-0.226,9.034c0,2.307,0.058,4.6,0.145,6.885
		c0.303,0.035,0.611,0.057,0.924,0.057L95.094,297.013L95.094,297.013z"/>
	<path style="fill:#555E6B;" d="M135.325,421.296c0.37-0.261,0.726-0.548,1.056-0.879l11.329-11.329
		c3.129-3.129,3.129-8.201,0-11.33c-3.128-3.127-8.201-3.127-11.329,0l-11.329,11.329c-0.31,0.31-0.58,0.643-0.828,0.987
		C127.758,413.978,131.465,417.718,135.325,421.296z"/>
	<path style="fill:#555E6B;" d="M389.963,409.659l-11.145-11.145c-3.128-3.127-8.201-3.127-11.329,0
		c-3.129,3.129-3.129,8.201,0,11.33l11.236,11.236C382.639,417.441,386.39,413.632,389.963,409.659z"/>
	<path style="fill:#555E6B;" d="M125.9,168.254l11.237,11.237c1.564,1.564,3.614,2.346,5.664,2.346s4.1-0.782,5.664-2.346
		c3.129-3.129,3.129-8.201,0-11.33l-11.144-11.144C133.348,160.59,129.539,164.342,125.9,168.254z"/>
	<path style="fill:#555E6B;" d="M264.869,468.791c0.032-0.29,0.051-0.584,0.051-0.883v-16.021c0-4.425-3.587-8.011-8.011-8.011
		c-4.424,0-8.011,3.586-8.011,8.011v16.021c0,0.299,0.019,0.592,0.051,0.883c2.64,0.116,5.291,0.185,7.96,0.185
		C259.578,468.976,262.23,468.906,264.869,468.791z"/>
</g>
<g>
</g>
<g>
</g>
<g>
</g>
<g>
</g>
<g>
</g>
<g>
</g>
<g>
</g>
<g>
</g>
<g>
</g>
<g>
</g>
<g>
</g>
<g>
</g>
<g>
</g>
<g>
</g>
<g>
</g>
</svg>
