<svg id="Layer_1" enable-background="new 0 0 52 52" height="512" viewBox="0 0 52 52" width="512" xmlns="http://www.w3.org/2000/svg">
    <style type="text/css"><![CDATA[.governance{fill: #FF9E04;}]]></style>
<g class="governance"><path d="m11.1 51h29.7c2.8 0 5-2.2 5-5v-27c0-.1-.1-.4-.2-.5l-4.3-6.7c-.8-1.2-2-1.9-3.5-1.9h-5.8v-5.9c0-1.7-1.3-3-3-3h-6.5c-1.7 0-3 1.3-3 3v5.9h-5.6c-1.4 0-2.7.7-3.4 1.8l-4.5 6.7v.1c.2.2.1.5.1.5v27c0 2.8 2.3 5 5 5zm32.8-5c0 1.7-1.3 3-3 3h-29.8c-1.7 0-3-1.3-3-3v-26h35.7v26zm-22.1-42c0-.6.4-1 1-1h6.5c.6 0 1 .4 1 1v6.9s0 0 0 0v3.1h-8.5zm-9.4 8.9c.4-.6 1-.9 1.7-.9h5.6v2h-2.1c-.6 0-1 .4-1 1s.4 1 1 1h16.7c.6 0 1-.4 1-1s-.4-1-1-1h-2.1v-2.1h5.8c.7 0 1.4.4 1.8 1l3.2 5.1h-34z"/></g>
</svg>