<svg xmlns="http://www.w3.org/2000/svg" viewBox="0 0 37 32.82"><defs><style>.cls-1{fill:#2c3046;}.cls-2{fill:#ffad40;}</style></defs><g id="Layer_2" data-name="Layer 2"><g id="Layer_1-2" data-name="Layer 1"><path class="cls-1" d="M5.67,20.46a.85.85,0,0,1-.5-.16L.41,17.15A.9.9,0,0,1,0,16.39V6a.9.9,0,0,1,.45-.78L9.18.13a.92.92,0,0,1,.92,0L19,5.25a.93.93,0,0,1,.45.79V16.39a.92.92,0,0,1-.42.77L14.1,20.31A.92.92,0,0,1,12.84,20a.93.93,0,0,1,.27-1.27l4.48-2.88V6.57L9.64,2,1.83,6.57V15.9l4.35,2.88a.92.92,0,0,1-.51,1.68Z"/><path class="cls-1" d="M31.2,20.45a.89.89,0,0,1-.77-.41.92.92,0,0,1,.27-1.27l4.47-2.88V6.57L27.23,2,19,6.83A.91.91,0,1,1,18,5.26L26.76.13a.92.92,0,0,1,.92,0l8.86,5.13A.92.92,0,0,1,37,6V16.39a.92.92,0,0,1-.42.77l-4.89,3.15A.89.89,0,0,1,31.2,20.45Z"/><path class="cls-1" d="M23.26,20.46a.85.85,0,0,1-.5-.16L18,17.15a.91.91,0,1,1,1-1.52l4.76,3.15a.92.92,0,0,1-.5,1.68Z"/><path class="cls-2" d="M18.57,32.82a.93.93,0,0,1-.46-.12L9.25,27.57a.94.94,0,0,1-.46-.79V16.43a.92.92,0,0,1,.42-.77l4.89-3.15a.92.92,0,1,1,1,1.54l-4.47,2.88v9.32l7.94,4.6,7.82-4.6V16.92L22,14a.91.91,0,1,1,1-1.52l4.76,3.15a.92.92,0,0,1,.41.76V26.78a.9.9,0,0,1-.45.78L19,32.69A.84.84,0,0,1,18.57,32.82Z"/></g></g></svg>