<svg xmlns="http://www.w3.org/2000/svg" viewBox="0 0 31.59 31.59"><defs><style>.cls-1{fill:#ffad40;}.cls-2{fill:#2c3046;}</style></defs><g id="Layer_2" data-name="Layer 2"><g id="Layer_1-2" data-name="Layer 1"><path class="cls-1" d="M15.92,18.37a.83.83,0,0,1-.83-.83c-.05-3.11,1.21-4,1.74-4.39a2,2,0,0,0,.83-1.6,1.74,1.74,0,1,0-3.47,0,.84.84,0,0,1-1.68,0,3.42,3.42,0,1,1,6.83,0,3.59,3.59,0,0,1-1.45,2.9l-.09.07c-.37.27-1.07.76-1,3a.84.84,0,0,1-.82.85Z"/><path class="cls-1" d="M15.93,23.8a2.06,2.06,0,0,1-.6-.08,2.34,2.34,0,0,1-1.48-1.17,2.53,2.53,0,0,1,.87-3.34,2.23,2.23,0,0,1,1.8-.26A2.34,2.34,0,0,1,18,20.12a2.53,2.53,0,0,1-.87,3.34A2.25,2.25,0,0,1,15.93,23.8Zm0-3.26a.57.57,0,0,0-.33.1.84.84,0,0,0-.27,1.11.74.74,0,0,0,.44.36.64.64,0,0,0,.5-.08.84.84,0,0,0,.27-1.11.74.74,0,0,0-.44-.36Z"/><path class="cls-2" d="M15.79,31.59A15.8,15.8,0,1,0,0,15.79,15.82,15.82,0,0,0,15.79,31.59Zm0-29.93A14.14,14.14,0,1,1,1.66,15.79,14.15,14.15,0,0,1,15.79,1.66Z"/></g></g></svg>