<svg id="Capa_1" enable-background="new 0 0 497 497" height="512" viewBox="0 0 497 497" width="512" xmlns="http://www.w3.org/2000/svg"><g><path d="m209.995 68.768c-2.071-3.587-6.659-4.816-10.245-2.745-3.587 2.071-4.816 6.658-2.745 10.245l15 25.981c2.071 3.587 6.659 4.816 10.245 2.745 3.587-2.071 4.816-6.658 2.745-10.245z" fill="#ccc"/><path d="m297.25 66.023c-3.587-2.072-8.174-.842-10.245 2.745l-15 25.981c-2.071 3.587-.842 8.174 2.745 10.245 3.587 2.072 8.174.842 10.245-2.745l15-25.981c2.071-3.587.842-8.174-2.745-10.245z" fill="#b3b3b3"/><path d="m248.5 60.999c-4.142 0-7.5 3.358-7.5 7.5v30c0 4.142 3.358 7.5 7.5 7.5s7.5-3.358 7.5-7.5v-30c0-4.142-3.358-7.5-7.5-7.5z" fill="#ccc"/><path d="m209.995 428.232c-2.071 3.587-6.659 4.816-10.245 2.745-3.587-2.071-4.816-6.658-2.745-10.245l15-25.981c2.071-3.587 6.659-4.816 10.245-2.745 3.587 2.071 4.816 6.658 2.745 10.245z" fill="#ccc"/><path d="m297.25 430.977c-3.587 2.072-8.174.842-10.245-2.745l-15-25.981c-2.071-3.587-.842-8.174 2.745-10.245 3.587-2.072 8.174-.842 10.245 2.745l15 25.981c2.071 3.587.842 8.174-2.745 10.245z" fill="#b3b3b3"/><path d="m248.5 436.001c-4.142 0-7.5-3.358-7.5-7.5v-30c0-4.142 3.358-7.5 7.5-7.5s7.5 3.358 7.5 7.5v30c0 4.142-3.358 7.5-7.5 7.5z" fill="#ccc"/><path d="m496.583 333.532-30-180c-2.368-14.203-14.708-25.031-29.583-25.031h-30l30 240h30c16.569 0 30-13.431 30-30 0-1.694-.147-3.352-.417-4.969z" fill="#999"/><path d="m466.583 333.532-30-180c-2.368-14.203-14.708-25.031-29.583-25.031h-188.5l30 240h98.5c8.284-8.284 21.716-8.284 30 0h30c8.284-8.284 21.716-8.284 30 0 16.569 0 30-13.431 30-30 0-1.694-.147-3.352-.417-4.969z" fill="#b3b3b3"/><path d="m278.083 333.532-30-180c-2.368-14.203-14.708-25.031-29.583-25.031h-30l30 240h30c16.569 0 30-13.431 30-30 0-1.694-.147-3.352-.417-4.969z" fill="#ccc"/><path d="m248.5 338.501c0-1.693-.147-3.352-.417-4.969l-30-180c-2.368-14.203-14.708-25.031-29.583-25.031h-68.5c-8.284 8.284-21.716 8.284-30 0h-30c-14.875 0-27.215 10.829-29.583 25.031l-30 180c-.27 1.617-.417 3.275-.417 4.969 0 16.569 13.431 30 30 30h188.5c16.569 0 30-13.432 30-30z" fill="#ebebeb"/></g></svg>