<?xml version="1.0" standalone="no"?><!DOCTYPE svg PUBLIC "-//W3C//DTD SVG 1.1//EN" "http://www.w3.org/Graphics/SVG/1.1/DTD/svg11.dtd"><svg t="1623741423201" class="icon" viewBox="0 0 1024 1024" version="1.1" xmlns="http://www.w3.org/2000/svg" p-id="11800" xmlns:xlink="http://www.w3.org/1999/xlink" width="24" height="24"><defs><style type="text/css"></style></defs><path d="M58.7776 316.416h81.5104c2.048-81.5104 32.5632-150.9376 97.8944-201.9328C289.3824 73.728 348.3648 61.44 413.696 67.584v99.9424h-6.144c-16.384 0-34.6112 0-50.9952 2.048-26.4192 4.096-48.9472 16.384-69.4272 32.5632-24.576 22.528-40.7552 48.9472-46.8992 81.5104-2.048 10.24-2.048 20.48-4.096 30.5152h73.5232c-40.7552 48.9472-83.5584 97.8944-124.5184 146.8416-42.8032-48.7424-85.6064-97.6896-126.3616-144.5888z m418.2016 595.7632c-8.192 6.144-18.432 8.192-28.4672 8.192H132.3008c-24.576 0-40.7552-12.288-46.8992-34.6112-2.048-4.096-2.048-8.192-2.048-14.336V589.824c0-24.576 12.288-40.7552 34.6112-46.8992 4.096-2.048 10.24-2.048 14.336-2.048H444.416c12.288 0 22.528 2.048 32.5632 10.24 10.24 8.192 16.384 20.48 18.432 32.5632v287.744c0 18.2272-6.144 32.5632-18.432 40.7552z m38.7072-477.3888c-12.288-10.24-18.432-22.528-18.432-38.7072V112.4352c0-22.528 14.336-38.7072 34.6112-44.8512 4.096-2.048 10.24-2.048 14.336-2.048h312.1152c20.48 0 36.6592 8.192 44.8512 26.4192 2.048 6.144 4.096 14.336 4.096 20.48v283.648c0 22.528-12.288 38.7072-34.6112 44.8512-4.096 2.048-10.24 2.048-14.336 2.048H546.2016c-12.0832 0-22.3232-2.048-30.5152-8.192z m359.2192 238.7968c-2.048 85.6064-34.6112 155.0336-104.0384 206.0288-48.9472 36.6592-106.0864 46.8992-167.3216 42.8032v-99.9424h28.4672c10.24 0 22.528 0 32.5632-2.048 40.7552-8.192 71.4752-30.5152 91.7504-65.3312 16.384-24.576 22.528-50.9952 24.576-81.5104h-73.5232c42.8032-48.9472 83.5584-97.8944 124.5184-146.8416 40.7552 48.9472 83.5584 95.8464 124.5184 146.8416h-81.5104z" p-id="11801"></path></svg>