<?xml version="1.0"?>
<svg xmlns="http://www.w3.org/2000/svg" id="Layer_3" data-name="Layer 3" width="512" height="512" viewBox="0 0 32 32"><path d="M26,15a1,1,0,0,0-1,1v7.458A1.543,1.543,0,0,1,23.458,25H8.542A1.543,1.543,0,0,1,7,23.458V8.542A1.543,1.543,0,0,1,8.542,7H16a1,1,0,0,0,0-2H8.542A3.546,3.546,0,0,0,5,8.542V23.458A3.546,3.546,0,0,0,8.542,27H23.458A3.546,3.546,0,0,0,27,23.458V16A1,1,0,0,0,26,15Z"/><path d="M26,5H20a1,1,0,0,0,0,2h3.586l-8.293,8.293a1,1,0,1,0,1.414,1.414L25,8.414V12a1,1,0,0,0,2,0V6A1,1,0,0,0,26,5Z"/></svg>
