<?xml version="1.0" standalone="no"?><!DOCTYPE svg PUBLIC "-//W3C//DTD SVG 1.1//EN" "http://www.w3.org/Graphics/SVG/1.1/DTD/svg11.dtd"><svg t="1623741573485" class="icon" viewBox="0 0 1024 1024" version="1.1" xmlns="http://www.w3.org/2000/svg" p-id="17521" xmlns:xlink="http://www.w3.org/1999/xlink" width="24" height="24"><defs><style type="text/css"></style></defs><path d="M1023.534545 64.512C1019.531636 27.927273 986.251636 0 946.501818 0H235.054545L227.141818 0.418909C187.578182 4.189091 157.556364 35.048727 157.556364 71.912727v38.027637h95.418181v-21.457455H928.581818v571.345455h-36.957091v88.436363h54.830546l7.959272-0.372363c39.563636-3.770182 69.585455-34.629818 69.585455-71.493819V71.912727l-0.465455-7.400727z" p-id="17522"></path><path d="M806.632727 157.556364H59.764364c-15.872 0-31.092364 5.818182-42.216728 16.337454-11.170909 10.472727-17.501091 24.669091-17.501091 39.517091v642.792727c0 30.952727 26.763636 55.994182 59.81091 55.994182h268.939636L448.139636 1024l119.482182-111.802182h239.057455c33.047273 0 59.764364-25.041455 59.764363-55.947636V213.410909c0-30.906182-26.763636-55.854545-59.764363-55.854545zM462.987636 734.347636a49.943273 49.943273 0 0 1-34.024727 12.194909 50.269091 50.269091 0 0 1-34.117818-12.706909 39.563636 39.563636 0 0 1-13.591273-31.325091 39.051636 39.051636 0 0 1 13.684364-31.278545c9.216-8.098909 21.504-12.567273 33.978182-12.241455 12.893091-0.279273 25.320727 4.049455 34.676363 12.241455 8.983273 8.285091 13.963636 19.549091 13.730909 31.278545a41.239273 41.239273 0 0 1-14.336 31.837091z m89.274182-224.349091c-5.585455 5.864727-23.552 21.550545-53.341091 45.754182-11.124364 8.704-19.223273 18.618182-24.855272 28.997818-6.144 11.636364-9.309091 23.738182-9.309091 37.701819v8.052363h-71.214546v-8.052363c0-22.016 3.770182-41.146182 12.427637-56.785455 8.098909-15.639273 32.162909-40.029091 72.424727-73.634909l7.447273-8.052364c11.217455-12.753455 16.756364-26.670545 16.756363-41.099636 0-19.223273-6.144-34.257455-17.408-45.288727-11.729455-10.984727-28.485818-16.244364-49.524363-16.244364-27.229091 0-46.452364 7.586909-58.181819 23.738182-10.472727 13.312-15.453091 32.442182-15.453091 56.785454H291.374545c0-42.961455 12.939636-76.567273 40.261819-100.817454 26.530909-24.343273 62.510545-36.584727 108.404363-36.584727 40.261818 0 73.076364 9.914182 97.931637 30.72 24.808727 20.293818 37.096727 48.174545 37.096727 83.409454 0 29.090909-7.959273 52.922182-22.853818 71.400727z" p-id="17523"></path></svg>