<?xml version="1.0" encoding="iso-8859-1"?>
<!-- Generator: Adobe Illustrator 19.0.0, SVG Export Plug-In . SVG Version: 6.00 Build 0)  -->
<svg version="1.1" id="Capa_1" xmlns="http://www.w3.org/2000/svg" xmlns:xlink="http://www.w3.org/1999/xlink" x="0px" y="0px"
	 viewBox="0 0 512 512" style="enable-background:new 0 0 512 512;" xml:space="preserve">
<linearGradient id="SVGID_1_" gradientUnits="userSpaceOnUse" x1="-377.8483" y1="283.6125" x2="-377.8483" y2="284.6025" gradientTransform="matrix(512 0 0 307.2 193714.3125 -87021.7109)">
	<stop  offset="0" style="stop-color:#FFDB4A"/>
	<stop  offset="1" style="stop-color:#FFBB01"/>
</linearGradient>
<path style="fill:url(#SVGID_1_);" d="M409.6,153.6c0,13.599,5.427,25.907,14.111,35.082l0,0L337.838,311.48
	c-6.267-2.724-13.148-4.28-20.398-4.28l0,0c-9.032,0-17.388,2.56-24.76,6.676l0,0l-57.815-67.666
	c6.738-8.643,10.895-19.395,10.895-31.171l0,0c0-28.242-22.979-51.2-51.2-51.2l0,0c-28.242,0-51.2,22.958-51.2,51.2l0,0
	c0,5.55,1.106,10.793,2.765,15.831l0,0l-56.607,32.481c-9.4-10.691-22.999-17.592-38.318-17.592l0,0
	c-28.221,0-51.2,22.958-51.2,51.2l0,0c0,28.242,22.979,51.2,51.2,51.2l0,0c28.242,0,51.2-22.958,51.2-51.2l0,0
	c0-5.571-1.106-10.793-2.765-15.831l0,0l56.607-32.481c9.4,10.691,22.999,17.592,38.318,17.592l0,0
	c9.032,0,17.408-2.56,24.781-6.656l0,0l57.774,67.625c-6.717,8.663-10.875,19.415-10.875,31.191l0,0c0,28.242,22.979,51.2,51.2,51.2
	l0,0c28.221,0,51.2-22.958,51.2-51.2l0,0c0-13.599-5.427-25.928-14.111-35.082l0,0l85.873-122.798
	c6.267,2.724,13.148,4.28,20.398,4.28l0,0c28.221,0,51.2-22.958,51.2-51.2l0,0c0-28.242-22.979-51.2-51.2-51.2l0,0
	C432.579,102.4,409.6,125.358,409.6,153.6 M430.08,153.6c0-16.937,13.783-30.72,30.72-30.72l0,0c16.937,0,30.72,13.783,30.72,30.72
	l0,0c0,16.937-13.783,30.72-30.72,30.72l0,0C443.863,184.32,430.08,170.537,430.08,153.6 M163.84,215.04
	c0-16.937,13.783-30.72,30.72-30.72l0,0c16.937,0,30.72,13.783,30.72,30.72l0,0c0,9.257-4.219,17.49-10.711,23.122l0,0
	c0,0-0.02,0-0.041,0.02l0,0l-0.02,0.02c-5.386,4.649-12.288,7.557-19.948,7.557l0,0C177.623,245.76,163.84,231.977,163.84,215.04
	 M20.48,296.96c0-16.937,13.783-30.72,30.72-30.72l0,0c16.937,0,30.72,13.783,30.72,30.72l0,0c0,16.937-13.783,30.72-30.72,30.72
	l0,0C34.263,327.68,20.48,313.897,20.48,296.96 M286.72,358.4c0-9.257,4.198-17.469,10.711-23.122l0,0c0,0,0.041,0,0.041-0.02l0,0
	l0.02-0.02c5.386-4.629,12.309-7.557,19.948-7.557l0,0c16.937,0,30.72,13.783,30.72,30.72l0,0c0,16.937-13.783,30.72-30.72,30.72
	l0,0C300.483,389.12,286.72,375.337,286.72,358.4"/>
<g>
</g>
<g>
</g>
<g>
</g>
<g>
</g>
<g>
</g>
<g>
</g>
<g>
</g>
<g>
</g>
<g>
</g>
<g>
</g>
<g>
</g>
<g>
</g>
<g>
</g>
<g>
</g>
<g>
</g>
</svg>
