<svg xmlns="http://www.w3.org/2000/svg" viewBox="0 0 31.04 31.04"><defs><style>.cls-1{fill:#2c3046;}.cls-2{fill:#ffad40;}</style></defs><g id="Layer_2" data-name="Layer 2"><g id="Layer_1-2" data-name="Layer 1"><path class="cls-1" d="M0,15.52A15.53,15.53,0,0,0,15.52,31a15.28,15.28,0,0,0,8.32-2.42L29.71,31a.92.92,0,0,0,.36.07,1,1,0,0,0,.69-.28A1,1,0,0,0,31,29.71l-2.35-5.87A15.28,15.28,0,0,0,31,15.52a15.52,15.52,0,0,0-31,0Zm1.26,0a14.27,14.27,0,0,1,28.53,0,14,14,0,0,1-2.49,8,1.05,1.05,0,0,0-.11,1L29,29l-4.46-1.79a1,1,0,0,0-.38-.07,1,1,0,0,0-.58.18,14,14,0,0,1-8,2.49A14.28,14.28,0,0,1,1.26,15.52Z"/><path class="cls-2" d="M15.52,5.52a10,10,0,1,0,10,10A10,10,0,0,0,15.52,5.52ZM24.17,19l-2.84.49a15.18,15.18,0,0,0,.52-3.66h3A9.38,9.38,0,0,1,24.17,19Zm-18-3.17h3a15.19,15.19,0,0,0,.53,3.66L6.87,19A9.13,9.13,0,0,1,6.2,15.86ZM6.87,12l2.85-.49a15,15,0,0,0-.53,3.66h-3A9.08,9.08,0,0,1,6.87,12Zm9-1.15a23.82,23.82,0,0,1,3.57.33l1.18.2a14.31,14.31,0,0,1,.57,3.79H15.86Zm3.68-.33a24,24,0,0,0-3.68-.33v-4c1.91.18,3.57,1.93,4.51,4.48Zm-4.35-.33a24,24,0,0,0-3.69.33l-.82.15c.94-2.55,2.6-4.3,4.51-4.48Zm-3.57,1a23.7,23.7,0,0,1,3.57-.33v4.32H9.86a14.32,14.32,0,0,1,.58-3.79ZM9.86,15.86h5.33v4.31a22.46,22.46,0,0,1-3.57-.33l-1.18-.2A14.25,14.25,0,0,1,9.86,15.86ZM11.5,20.5a24,24,0,0,0,3.69.34v4c-1.91-.19-3.57-1.93-4.51-4.48Zm4.36.34a24,24,0,0,0,3.68-.34l.83-.14c-.94,2.55-2.6,4.3-4.51,4.48Zm3.57-1a22.57,22.57,0,0,1-3.57.33V15.86h5.32a14.24,14.24,0,0,1-.57,3.78Zm2.42-4.65a15,15,0,0,0-.52-3.66l2.84.49a9.33,9.33,0,0,1,.68,3.17Zm2-3.91-2.72-.47a9.3,9.3,0,0,0-2.65-4.15A9.42,9.42,0,0,1,23.83,11.28ZM12.59,6.66a9.21,9.21,0,0,0-2.65,4.15l-2.73.47A9.41,9.41,0,0,1,12.59,6.66ZM7.21,19.76l2.73.47a9.16,9.16,0,0,0,2.65,4.15A9.41,9.41,0,0,1,7.21,19.76Zm11.25,4.62a9.24,9.24,0,0,0,2.65-4.15l2.72-.47A9.42,9.42,0,0,1,18.46,24.38Z"/></g></g></svg>