<svg id="Layer_1" enable-background="new 0 0 512 512" height="512" viewBox="0 0 512 512" width="512" xmlns="http://www.w3.org/2000/svg"><g><g clip-rule="evenodd" fill-rule="evenodd"><path d="m364.808 154.761 70.961 311.285 26.492-96.508-29.33-177.877-70.016-122.054z" fill="#ffa96b"/><path d="m435.769 466.046-70.961-311.285-61.5-7.569-19.87 204.369 35.954 79.477z" fill="#ffbe90"/><g fill="#ff9346"><path d="m435.769 466.046-116.377-35.008-27.438 70.962z"/><path d="m291.954 502 27.438-70.962-35.954-79.477-113.538-48.254-63.393 133.408z"/><path d="m106.507 436.715 63.393-133.408 15.138-174.092-55.823-24.6-79.477 200.585z"/></g><path d="m169.9 303.307 113.538 48.254 19.87-204.369-50.147-67.177-68.123 49.2z" fill="#ffbe90"/><path d="m185.038 129.215 68.123-49.2 6.623-70.015-130.569 94.615z" fill="#ffa96b"/><path d="m253.161 80.015 50.147 67.177 61.5 7.569-1.893-85.154-103.131-59.607z" fill="#ffbe90"/></g><g><path d="m472.128 367.912-29.331-177.878c-.194-1.179-.598-2.313-1.192-3.349l-70.016-122.054c-.877-1.529-2.144-2.8-3.67-3.683l-103.131-59.607c-3.416-1.974-7.676-1.755-10.872.561l-130.568 94.615c-1.54 1.115-2.729 2.646-3.429 4.414l-79.478 200.585c-.976 2.464-.935 5.214.116 7.646l56.769 131.516c1.105 2.561 3.229 4.544 5.86 5.47l185.446 65.284c1.073.378 2.196.567 3.321.567.813 0 1.628-.1 2.425-.299l143.815-35.954c3.503-.875 6.262-3.572 7.218-7.054l26.492-96.507c.384-1.391.46-2.849.225-4.273zm-351.82 63.061 54.508-114.71 101.12 42.976 32.618 72.103-22.428 58.006zm205.072 12.309 72.715 21.874-89.86 22.465zm1.249-20.51-32.979-72.901 18.618-191.5 44.35 5.458 65.584 287.693zm-142.801-305.018-34.638-15.264 98.556-71.417-4.114 43.49zm84.444-91.298 84.77 48.995 1.511 67.973-45.785-5.635-45.288-60.669zm-207.712 278.58 74.126-187.081 39.77 17.525-3.051 35.085c-.479 5.502 3.594 10.351 9.096 10.829.294.025.587.038.877.038 5.131 0 9.499-3.928 9.951-9.135l3.275-37.656 56.432-40.756 41.944 56.189-18.176 186.951-94.313-40.083 3.042-34.985c.479-5.502-3.594-10.351-9.096-10.829-5.51-.474-10.351 3.595-10.829 9.097l-3.514 40.419-53.149 111.851zm376.108 119.958-61.885-271.468-.997-44.872 49.573 86.416 28.68 173.935z"/><path d="m177.469 226.261c5.523 0 10-4.478 10-10s-4.477-10-10-10h-.007c-5.523 0-9.996 4.478-9.996 10s4.48 10 10.003 10z"/></g></g></svg>