<svg id="Layer_1" enable-background="new 0 0 24 24" height="512" viewBox="0 0 24 24" width="512" xmlns="http://www.w3.org/2000/svg">
      <style type="text/css"><![CDATA[.faq{fill: #565A69;}]]></style>
<g class="faq"><path d="m18 1h-12c-2.757 0-5 2.243-5 5v8c0 2.414 1.721 4.434 4 4.899v3.101c0 .369.203.708.528.882.148.079.31.118.472.118.194 0 .388-.057.555-.168l5.748-3.832h5.697c2.757 0 5-2.243 5-5v-8c0-2.757-2.243-5-5-5zm-6.555 16.168-4.445 2.963v-2.131c0-.552-.447-1-1-1-1.654 0-3-1.346-3-3v-8c0-1.654 1.346-3 3-3h12c1.654 0 3 1.346 3 3v8c0 1.654-1.346 3-3 3h-6c-.072 0-.174.007-.291.043-.116.035-.204.085-.264.125z"/><path d="m12 4c-1.654 0-3 1.346-3 3 0 .552.447 1 1 1s1-.448 1-1c0-.551.448-1 1-1s1 .449 1 1c0 .322-.149.617-.409.808-1.011.74-1.591 1.808-1.591 2.929v.263c0 .552.447 1 1 1s1-.448 1-1v-.263c0-.653.484-1.105.773-1.317.768-.564 1.227-1.468 1.227-2.42 0-1.654-1.346-3-3-3z"/><circle cx="12" cy="14" r="1"/></g></svg>