<?xml version="1.0" encoding="iso-8859-1"?>
<!-- Generator: Adobe Illustrator 19.0.0, SVG Export Plug-In . SVG Version: 6.00 Build 0)  -->
<svg version="1.1" id="Capa_1" xmlns="http://www.w3.org/2000/svg" xmlns:xlink="http://www.w3.org/1999/xlink" x="0px" y="0px"
	 viewBox="0 0 512 512" style="enable-background:new 0 0 512 512;" xml:space="preserve">
	     <style type="text/css"><![CDATA[.commit{fill: #CB344F;}]]></style>
<g class="commit">
<g>
	<g>
		<path d="M481.175,51.001l-21-21.301c-39.6-39.6-108.9-39.6-148.5,0l-86.165,87.032c29.679-3.274,58.644,2.137,87.021,19.178
			l52.245-53.11c10.634-10.634,32.152-10.148,42.299,0l21.301,21.301c11.7,11.699,11.7,30.599,0,42.299
			c-126.181,126.534-95.797,97.046-132.533,133.398c-11.554,11.554-30.652,11.649-42.301,0l-21.253-21.253l-53.077,53.123
			l21.231,20.931c7.2,7.5,15.599,13.5,24.3,18.3c40.759,22.382,93.081,14.116,124.199-18.3l132.234-133.098
			C522.275,158.401,522.275,91.8,481.175,51.001z"/>
	</g>
</g>
<g>
	<g>
		<path d="M83.742,364.699L219.941,228.5c10.73-10.73,32.278-10.023,42.301,0l21.169,21.169
			c22.553-22.282,29.232-28.839,53.102-52.769c-0.059-0.066-0.108-0.135-0.172-0.2l-21-21.301
			c-31.223-31.223-83.887-38.901-124.499-17.401c0,0,0,0-0.3,0.3c-8.701,4.2-16.5,9.901-23.701,17.1l-136.2,136.2
			c-13.5,13.5-23.101,30.601-27.599,49.2c-8.701,36,1.5,73.2,27.599,99.3l21.301,21c20.4,20.7,47.399,30.901,74.099,30.901
			c27.001,0,54-10.201,74.401-30.901l88.694-88.502c-31.493,3.365-59.451-3.255-86.039-20.053l-55.756,55.756
			c-11.554,11.554-30.652,11.649-42.301,0L83.742,407C70.837,394.095,73.219,374.412,83.742,364.699z"/>
	</g>
</g>
</g>
<g>
</g>
<g>
</g>
<g>
</g>
<g>
</g>
<g>
</g>
<g>
</g>
<g>
</g>
<g>
</g>
<g>
</g>
<g>
</g>
<g>
</g>
<g>
</g>
<g>
</g>
<g>
</g>
<g>
</g>
</svg>
