<svg id="Layer_1" enable-background="new 0 0 512.161 512.161" height="512" viewBox="0 0 512.161 512.161" width="512" xmlns="http://www.w3.org/2000/svg"><path d="m501.154 135.251c-254.837-143.001-238.974-135.175-245.073-135.175h-102.72c-16.402 0-22.158 21.913-7.83 29.953l237.243 133.128c5.104 2.864-.647 2.047 110.549 2.047 16.401.001 22.159-21.912 7.831-29.953z" fill="#f9f9f9"/><path d="m398.435 135.251-237.244-133.128c-10.654-5.978-23.83 1.74-23.83 13.953v102.719c0 5.786 3.124 11.122 8.17 13.953l237.244 133.128c10.654 5.977 23.83-1.738 23.83-13.953v-102.718c0-5.787-3.124-11.122-8.17-13.954z" fill="#e0e0e0"/><path d="m234.866 102.817c-16.638 7.569-63.602-17.452-97.505-37.981v53.959c0 5.786 3.124 11.122 8.17 13.953l237.244 133.128c10.654 5.977 23.83-1.738 23.83-13.953v-95.115c-62.029-38.07-152.88-62.57-171.739-53.991z" fill="#d3d1d1"/><path d="m493.324 133.205h-102.719c-8.837 0-16 7.164-16 16v102.719c0 8.836 7.163 16 16 16h102.719c8.837 0 16-7.164 16-16v-102.719c0-8.837-7.163-16-16-16z" fill="#eaeaea"/><path d="m509.324 251.924v-24.147c-9.728-2.907-21.778-2.91-36.439 2.389-39.763 14.372-79.874-49.667-98.006-83.85-.397 2.173-.274-6.447-.274 105.608 0 8.836 7.163 16 16 16h102.719c8.837 0 16-7.164 16-16z" fill="#e0e0e0"/><path d="m503.889 276.65c-327.874-183.322-308.925-173.833-315.071-173.833h-102.719c-16.419 0-22.158 21.942-7.808 29.965l307.262 171.798c5.068 2.832-.848 2.035 110.527 2.035 16.42.001 22.158-21.942 7.809-29.965z" fill="#f9f9f9"/><path d="m401.17 276.65-307.263-171.798c-10.65-5.955-23.808 1.761-23.808 13.965v102.719c0 5.795 3.133 11.137 8.192 13.965l307.262 171.799c10.652 5.956 23.809-1.761 23.809-13.965v-102.719c0-5.795-3.134-11.137-8.192-13.966z" fill="#e0e0e0"/><path d="m78.291 235.502c327.978 183.381 308.925 173.833 315.071 173.833 8.747 0 16-7.08 16-16v-81.89c-51.078-27.574-130.962-53.166-223.004-81.279-58.358-17.825-94.22-38.725-116.259-57.838v49.208c0 5.796 3.133 11.138 8.192 13.966z" fill="#d3d1d1"/><path d="m496.081 274.616h-102.719c-8.837 0-16 7.164-16 16v102.719c0 8.836 7.163 16 16 16h102.719c8.837 0 16-7.164 16-16v-102.719c0-8.837-7.164-16-16-16z" fill="#eaeaea"/><path d="m476.119 327.905c-39.696-15.351-73.951-4.855-98.757 10.091v55.34c0 8.836 7.163 16 16 16h102.719c8.837 0 16-7.164 16-16v-55.063c-8.811-1.218-20.508-4.392-35.962-10.368z" fill="#e0e0e0"/><path d="m433.871 379.392c-327.875-183.323-308.926-173.833-315.071-173.833h-102.719c-16.419 0-22.157 21.942-7.809 29.965l307.263 171.798c5.068 2.832-.848 2.035 110.527 2.035 16.418 0 22.158-21.942 7.809-29.965z" fill="#f9f9f9"/><path d="m331.152 379.392-307.263-171.798c-10.651-5.955-23.808 1.761-23.808 13.965v102.719c0 5.795 3.133 11.137 8.192 13.965l307.262 171.798c10.652 5.956 23.809-1.761 23.809-13.965v-102.719c-.001-5.795-3.135-11.137-8.192-13.965z" fill="#e0e0e0"/><path d="m339.343 454.009c-52.218-40.232-158.928-115.829-223.486-115.829-57.624 0-96.093-46.074-115.777-77.858v63.956c0 5.795 3.133 11.137 8.192 13.965 327.978 183.381 308.925 173.833 315.071 173.833 8.747 0 16-7.08 16-16z" fill="#d3d1d1"/><path d="m426.062 377.357h-102.719c-8.837 0-16 7.164-16 16v102.719c0 8.836 7.163 16 16 16h102.719c8.837 0 16-7.164 16-16v-102.719c0-8.836-7.163-16-16-16z" fill="#eaeaea"/><path d="m374.605 426.79c-15.932 14.351-42.035 16.905-67.262 14.938v54.349c0 8.836 7.163 16 16 16h102.719c8.837 0 16-7.164 16-16v-62.675c-20.288-14.283-46.811-25.21-67.457-6.612z" fill="#e0e0e0"/></svg>