<svg xmlns="http://www.w3.org/2000/svg" viewBox="0 0 28.1 36.17"><defs><style>.cls-1{fill:#2c3046;}.cls-2{fill:#ffad40;}</style></defs><g id="Layer_2" data-name="Layer 2"><g id="Layer_1-2" data-name="Layer 1"><path class="cls-1" d="M16.47,11.63H10.66a1,1,0,1,1,0-1.92h5.81a1,1,0,1,1,0,1.92Z"/><path class="cls-1" d="M17,8.56H11.14a1,1,0,0,1-.72-.32A16.93,16.93,0,0,1,6.8,1.14,1,1,0,0,1,8.69.78a14.84,14.84,0,0,0,2.9,5.86h5a9.49,9.49,0,0,0,2.42-2.88L12.44,2.67A1,1,0,1,1,12.75.78l7.76,1.28a.94.94,0,0,1,.78,1.14,10.05,10.05,0,0,1-3.76,5.17A.89.89,0,0,1,17,8.56Z"/><path class="cls-1" d="M24.93,36.17H3.17a1,1,0,0,1-.82-.45A15.2,15.2,0,0,1,0,27.54C0,19.4,6.3,12.78,14.05,12.78S28.1,19.4,28.1,27.54a15.12,15.12,0,0,1-2.36,8.18A1,1,0,0,1,24.93,36.17ZM3.15,34.78H25a14,14,0,0,0,1.89-7.07c0-7.47-5.74-13.54-12.79-13.54S1.26,20.24,1.26,27.71A14,14,0,0,0,3.15,34.78Z"/><g id="Layer_2-2" data-name="Layer 2"><g id="Layer_1-2-2" data-name="Layer 1-2"><path class="cls-2" d="M20.63,24.91l-2.9-5a.86.86,0,0,0-.74-.43h-5.8a.86.86,0,0,0-.74.43l-2.9,5a.86.86,0,0,0,0,.85l2.9,5a.84.84,0,0,0,.73.42H17a.85.85,0,0,0,.73-.43l2.91-5A.86.86,0,0,0,20.63,24.91Zm-4,4a.85.85,0,0,1-.74.42H12.28a.86.86,0,0,1-.74-.43l-1.8-3.13a.86.86,0,0,1,0-.85l1.81-3.13a.84.84,0,0,1,.73-.42H15.9a.84.84,0,0,1,.73.42l1.51,2.61H14.77a1,1,0,0,0-1,.95h0a1,1,0,0,0,1,.94h3.37Z"/></g></g></g></g></svg>