<svg id="Layer_1" enable-background="new 0 0 65 65" height="512" viewBox="0 0 65 65" width="512" xmlns="http://www.w3.org/2000/svg"><g><path d="m62.1.5h-59.2c-1.3 0-2.4 1-2.4 2.3v55.6c0 1.3 1.1 2.3 2.4 2.3h59.2c1.3 0 2.4-1 2.4-2.3v-55.6c0-1.3-1.1-2.3-2.4-2.3z" fill="#dbdfe0"/><g fill="#788d9a"><path d="m8.1 60.7h5.4v3.8h-5.4z"/><path d="m51.5 60.7h5.4v3.8h-5.4z"/></g><path d="m8.1 7.9h48.7v45.4h-48.7z" fill="#788d9a"/><ellipse cx="32.5" cy="30.6" fill="#dbdfe0" rx="13.2" ry="12.4"/><g fill="#445c6c"><ellipse cx="32.5" cy="30.6" rx="5.3" ry="5"/><g><path d="m6.8 14.4h2.6v7.9h-2.6z"/><path d="m6.8 38.9h2.6v7.9h-2.6z"/></g><path d="m51.1 23.7c-.8 0-1.5.6-1.5 1.4v11c0 .8.7 1.4 1.5 1.4s1.5-.6 1.5-1.4v-11c0-.8-.6-1.4-1.5-1.4z"/></g></g></svg>