<?xml version="1.0" standalone="no"?><!DOCTYPE svg PUBLIC "-//W3C//DTD SVG 1.1//EN" "http://www.w3.org/Graphics/SVG/1.1/DTD/svg11.dtd"><svg t="1623741508538" class="icon" viewBox="0 0 1025 1024" version="1.1" xmlns="http://www.w3.org/2000/svg" p-id="15854" xmlns:xlink="http://www.w3.org/1999/xlink" width="24.0234375" height="24"><defs><style type="text/css"></style></defs><path d="M500.727259 897.538797c-135.421272 0-270.841521 0.064468-406.261771-0.082888-16.911158-0.019443-33.875528-0.388856-50.427506-4.912893-20.095687-5.490038-33.04972-18.276249-36.874839-38.564317-2.732228-14.493086-4.238534-29.435403-4.275373-44.182268-0.525979-207.225645-0.740874-414.45129-0.854461-621.676935-0.005117-9.834996 0.852414-19.820418 2.702552-29.469172 2.894933-15.090697 12.58769-24.74559 27.681456-27.592428 9.839089-1.856277 20.009729-2.721994 30.033014-2.724041 258.650875-0.069585 517.300726 0.021489 775.951601 0.159636 8.162914 0.004093 16.369829 0.381693 24.481577 1.276063 22.804379 2.515287 34.643008 15.564487 35.286668 38.60525 0.490164 17.508769 0.684592 35.023678 1.199315 52.5304 0.127913 4.348028 0.633427 8.754385 1.575892 12.998035 3.603061 16.254196 13.06455 23.937179 31.465642 25.055652 17.289782 1.051959 34.620495 1.394766 51.915393 2.37714 5.073552 0.288572 10.236132 1.193175 15.092743 2.682086 14.434757 4.425799 21.354354 15.261589 23.2444 29.53364 1.044796 7.896854 1.508353 15.927761 1.50426 23.89727-0.085958 157.704788-0.240477 315.4106-0.503467 473.114364-0.028653 17.554818-1.692548 34.938744-7.644097 51.708686-9.284457 26.161846-27.66099 42.844807-54.197366 49.15963-15.584953 3.708462-31.952736 5.699816-47.977711 5.749958-137.704269 0.434905-275.41263 0.249687-413.117922 0.249687C500.727259 897.469212 500.727259 897.502981 500.727259 897.538797zM55.05285 188.663894c0 3.670599 0 6.120394 0 8.569166 0 210.435757 0 420.87049 0 631.3042 0 1.52268-0.446162 3.255137 0.130983 4.516874 0.717338 1.566682 2.13564 3.725858 3.508917 3.934612 9.574053 1.459235 19.213597 3.470031 28.835745 3.491521 237.474576 0.544399 474.950176 0.87288 712.424752 1.178849 5.502317 0.00614 11.042497-0.37453 16.499789-1.077541 17.309224-2.225691 27.40107-11.06501 30.486338-28.266787 1.798972-10.032494 2.232854-20.413935 2.258437-30.641881 0.435928-177.297009 0.725524-354.592994 0.975211-531.888979 0.011256-7.606235-0.341784-15.245216-1.082658-22.813588-2.355651-24.048719-14.474666-36.998659-38.278815-40.35715-9.572006-1.350764-19.326161-1.953492-28.998451-1.968841-29.135574-0.047072-58.272171 0.533143-87.408769 0.564865-192.151321 0.207731-384.303666 0.24764-576.454988 0.615007C97.242741 185.863105 76.538187 187.650821 55.05285 188.663894z" p-id="15855"></path><path d="M285.668205 451.194122c36.748972-0.001023 73.501014-0.202615 110.246917 0.147356 8.645914 0.082888 17.501606 1.160429 25.854854 3.334955 10.246365 2.667759 16.137539 10.629081 18.10331 20.826328 1.358951 7.05058 2.023076 14.341636 2.041496 21.528316 0.177032 73.877591 0.239454 147.756205 0.078795 221.63175-0.017396 8.111748-0.618077 16.492626-2.725064 24.267706-3.894703 14.363126-15.869433 21.940708-33.463136 22.147416-14.08581 0.163729-28.179806-0.490164-42.267663-0.384763-43.410696 0.325411-86.821391 1.112334-130.23311 1.160429-19.391652 0.021489-38.812981-0.851391-58.169841-2.112104-24.325012-1.586125-44.347021-23.424502-44.775786-47.690162-0.229221-12.942777-0.9967-25.88146-1.071402-38.82526-0.352017-60.741409-0.601704-121.483842-0.718361-182.225251-0.01228-6.235005 0.666172-12.551874 1.784646-18.693758 2.328022-12.786211 10.345626-20.643156 22.947641-23.054065 7.42204-1.419326 15.114233-1.928932 22.688745-1.968841C212.549907 451.090768 249.109568 451.197192 285.668205 451.194122z" p-id="15856"></path><path d="M130.529869 348.370269c9.222035-6.305613 17.461697-12.898775 26.596751-17.838274 5.7694-3.119037 12.873192-5.29254 19.381419-5.302773 180.695409-0.26606 361.39184-0.25378 542.088272 0.035816 6.302543 0.010233 13.237489 2.216481 18.759249 5.361101 9.018398 5.135974 17.116843 11.888771 26.858718 18.85851-12.71458 7.68196-24.484647 15.22475-36.721343 21.916149-3.583618 1.958608-8.490372 2.023076-12.796444 2.056845-71.208808 0.552585-142.417617 1.183965-213.626425 1.344624-83.397409 0.187265-166.796864 0.022513-250.195296-0.173962-23.987321-0.055259-47.973618-0.867764-71.962985-1.077541-8.111748-0.071631-15.410991-2.245134-22.010293-6.726192C148.252509 360.950795 139.759067 354.845751 130.529869 348.370269z" p-id="15857"></path><path d="M764.339122 611.007945c-5.934153 7.290033-11.378142 14.139022-17.003256 20.838607-4.751211 5.658883-10.68127 8.702196-18.359137 8.739035-53.829999 0.264013-107.656929 0.74906-161.486928 1.014096-6.257517 0.031722-12.535501-0.697895-18.776645-1.338485-10.197246-1.045819-24.432459-14.335497-26.229384-24.430412-0.325411-1.830695-0.319272-3.850701 0.085958-5.658883 2.50096-11.197016 17.027815-23.405059 28.582989-23.466458 58.025555-0.305969 116.054179-0.208754 174.076664-0.783853 11.761881-0.116657 20.47124 3.974521 27.692712 12.756535C756.405429 602.915639 760.372787 606.755084 764.339122 611.007945z" p-id="15858"></path><path d="M764.40973 478.469326c-6.316869 7.257288-12.229532 14.204513-18.316158 20.996197-4.53734 5.062296-10.127661 7.437389-17.166985 7.463995-47.976688 0.186242-95.952352 0.704035-143.926993 0.918929-10.654664 0.048095-21.403472 0.00614-31.9292-1.366114-5.022387-0.654916-10.43977-3.643993-14.236236-7.140631-6.681166-6.15314-12.258185-13.508665-18.952654-21.103644 8.677637-7.443529 17.115819-15.051811 26.013467-22.073738 2.494821-1.968841 6.308683-2.943029 9.587356-3.125177 16.521279-0.914836 33.060977-1.819438 49.600675-1.978051 31.221072-0.298805 62.448284-0.191358 93.671403-0.019443 8.93244 0.049119 17.85567 0.957815 26.78811 1.364067 7.335059 0.333598 13.701047 2.843768 19.09694 7.857968C751.170195 466.333938 757.756193 472.346885 764.40973 478.469326z" p-id="15859"></path><path d="M697.712679 742.505861c-6.157233 4.968152-11.606339 9.116635-16.769942 13.592576-7.642051 6.622838-16.795525 8.772804-26.446325 8.890484-20.730137 0.254803-41.46539 0.134053-62.198597 0.140193-11.025101 0.00307-22.058388 0.184195-33.07428-0.157589-7.567349-0.234337-14.543228-2.63092-20.298302-7.900947-5.859451-5.364171-11.774161-10.670014-17.99177-16.297175 7.54586-5.963829 14.32424-11.82635 21.655206-16.888645 3.278673-2.263553 7.601118-3.89675 11.56029-4.15667 37.060057-2.433422 74.148767-2.495844 111.205754 0.058328 3.943822 0.271176 8.398274 1.777483 11.482519 4.170996C684.000376 729.519082 690.471764 735.972051 697.712679 742.505861z" p-id="15860"></path></svg>