<?xml version="1.0" standalone="no"?><!DOCTYPE svg PUBLIC "-//W3C//DTD SVG 1.1//EN" "http://www.w3.org/Graphics/SVG/1.1/DTD/svg11.dtd"><svg t="1623741457638" class="icon" viewBox="0 0 1024 1024" version="1.1" xmlns="http://www.w3.org/2000/svg" p-id="14242" xmlns:xlink="http://www.w3.org/1999/xlink" width="24" height="24"><defs><style type="text/css"></style></defs><path d="M359.936 585.216h-280.064c-43.52 0-78.848 34.304-78.848 76.8v284.16c0 41.984 35.328 76.8 78.848 76.8h280.064c43.52 0 78.848-34.816 78.848-76.8v-284.16c0-42.496-35.328-76.8-78.848-76.8zM359.936 1.536h-280.064c-43.52 0-78.848 34.816-78.848 76.8v284.16c0 41.984 35.328 76.8 78.848 76.8h280.064c43.52 0 78.848-34.816 78.848-76.8v-284.16c0-42.496-35.328-76.8-78.848-76.8zM944.128 585.216h-280.064c-43.52 0-78.848 34.816-78.848 76.8v284.16c0 41.984 35.328 76.8 78.848 76.8h280.064c43.008 0 78.848-34.816 78.848-76.8v-284.16c0-42.496-35.328-76.8-78.848-76.8zM668.16 433.664h276.48c43.008 0 77.824-34.304 77.824-76.288V76.8c0-41.472-35.328-75.776-77.824-75.776h-276.48c-43.008 0-77.824 34.304-77.824 75.776v281.088c0 41.472 35.328 75.776 77.824 75.776z" p-id="14243"></path></svg>