<svg xmlns="http://www.w3.org/2000/svg" viewBox="0 0 32 35.62"><defs><style>.cls-1{fill:#2c3046;}.cls-2{fill:#ffad40;}</style></defs><g id="Layer_2" data-name="Layer 2"><g id="Layer_1-2" data-name="Layer 1"><path class="cls-1" d="M27.31,8.3a15.87,15.87,0,0,0-9.22-4.55V2.09a2.09,2.09,0,0,0-4.18,0V3.75A15.81,15.81,0,0,0,7.24,6.23.69.69,0,1,0,8,7.39a14.58,14.58,0,0,1,6.66-2.32h0C15.13,5,15.56,5,16,5A14.6,14.6,0,1,1,3.77,11.62a.69.69,0,0,0-1.16-.76,16,16,0,0,0,24.7,20.07,16,16,0,0,0,0-22.63Zm-12-4.67V2.09a.7.7,0,1,1,1.4,0V3.63H15.3Z"/><path class="cls-1" d="M16,32.83A13.22,13.22,0,1,0,2.78,19.62,13.23,13.23,0,0,0,16,32.83Zm0-25A11.83,11.83,0,1,1,4.17,19.62,11.85,11.85,0,0,1,16,7.79Z"/><path class="cls-2" d="M7.76,20.31h5.82l.61.92a.64.64,0,0,0,.2.2l.91.61v5.82a.7.7,0,0,0,1.4,0V23l5,3.28a.68.68,0,0,0,.38.12.7.7,0,0,0,.5-.21.68.68,0,0,0,.08-.87l-3.28-5h4.9a.7.7,0,1,0,0-1.39H18.42L17.81,18a.73.73,0,0,0-.2-.19l-.91-.61V11.38a.7.7,0,0,0-1.4,0v4.9l-5-3.29a.71.71,0,0,0-.88.09.7.7,0,0,0-.08.88l3.28,5H7.76a.7.7,0,1,0,0,1.39Zm9-1.42,2.85,4.3-4.31-2.84L12.42,16Z"/><path class="cls-1" d="M5.18,9.49a.71.71,0,0,0,.47-.18h0a.69.69,0,0,0,0-1,.69.69,0,0,0-1-.05.7.7,0,0,0,0,1A.71.71,0,0,0,5.18,9.49Z"/></g></g></svg>