<?xml version="1.0" standalone="no"?><!DOCTYPE svg PUBLIC "-//W3C//DTD SVG 1.1//EN" "http://www.w3.org/Graphics/SVG/1.1/DTD/svg11.dtd"><svg t="1623741233276" class="icon" viewBox="0 0 1024 1024" version="1.1" xmlns="http://www.w3.org/2000/svg" p-id="2540" xmlns:xlink="http://www.w3.org/1999/xlink" width="24" height="24"><defs><style type="text/css"></style></defs><path d="M652.503186 1024H371.46194C88.653944 1024 30.171964 931.335252 56.954867 712.591141c26.782903-218.744111 280.221884-328.538651 280.221884-328.538651h349.637228s253.413376 109.820144 280.221884 328.538651c26.782903 218.744111-31.699076 311.408859-314.532677 311.408859zM511.982563 884.247529c75.919032 0 137.448015-41.275373 138.139351-92.331882-28.139972 27.269399-79.170876 45.730655-138.139351 45.730655-58.968476 0-109.99938-18.461255-138.139352-45.730655 0.691337 51.056509 62.22032 92.331882 138.139352 92.331882z m0-69.876235c75.919032 0 137.448015-41.275373 138.139351-92.331882-28.139972 27.269399-79.170876 45.730655-138.139351 45.730654-58.968476 0-109.99938-18.461255-138.139352-45.730654 0.691337 51.056509 62.22032 92.331882 138.139352 92.331882z m0-69.876236c75.919032 0 137.448015-41.275373 138.139351-92.331882-28.139972 27.269399-79.170876 45.730655-138.139351 45.730655-58.968476 0-109.99938-18.461255-138.139352-45.730655 0.691337 51.056509 62.22032 92.331882 138.139352 92.331882z m0-256.255539c-76.354318 0-138.267377 41.710659-138.267377 93.176849s61.913059 93.176849 138.267377 93.176849 138.267377-41.710659 138.267377-93.176849c0-51.440585-61.913059-93.176849-138.267377-93.176849z m179.235488-181.181474a25.60507 25.60507 0 0 1 0 51.21014H332.747074a25.60507 25.60507 0 0 1 0-51.21014h358.470977z m81.731383-169.889638C722.609867 174.884675 691.218051 281.452976 691.218051 281.452976H332.747074S118.227799 111.307287 210.866942 82.98808c92.639143-28.319207 194.060824 81.244886 194.060824 81.244886S670.65718-44.166697 786.366491 8.528537c42.401996 19.331828 32.748884 94.047421-13.417057 128.63987z" p-id="2541" fill="#262A41"></path></svg>