<?xml version="1.0"?>
<svg xmlns="http://www.w3.org/2000/svg" id="outline" viewBox="0 0 512 512" width="512" height="512">
    <style type="text/css"><![CDATA[.assets{fill: #FF9E04;}]]></style>
  <g class="assets">
  <path d="M112,440H400a96,96,0,0,0,0-192H365.0033A95.973,95.973,0,0,0,312,72H192a95.94562,95.94562,0,0,0-72,159.4231V232h.512a96.75823,96.75823,0,0,0,18.48468,16H112a96,96,0,0,0,0,192ZM72,344a79.48083,79.48083,0,0,1,10.76263-40h21.97821a95.96356,95.96356,0,0,0-7.40014,56H73.60986A80.05466,80.05466,0,0,1,72,344Zm56.04358-128a80.05555,80.05555,0,0,1-9.34381-16H141.491a95.58894,95.58894,0,0,0,7.39605,16Zm30.65619-16H181.491a95.58894,95.58894,0,0,0,7.39605,16H168.04358A80.05555,80.05555,0,0,1,158.69977,200ZM152,168a79.481,79.481,0,0,1,10.76263-40h21.97821a95.96356,95.96356,0,0,0-7.40014,56H153.60986A80.05511,80.05511,0,0,1,152,168ZM306.97266,403.88574a96.3711,96.3711,0,0,0,9.00128-13.40954,95.68836,95.68836,0,0,0,28.7655,32.06921A78.86722,78.86722,0,0,1,306.97266,403.88574Zm0-119.77148a78.86637,78.86637,0,0,1,37.81128-18.66748,95.79343,95.79343,0,0,0-28.80542,32.08508A96.36173,96.36173,0,0,0,306.97266,284.11426ZM136.86835,422.54565A79.64987,79.64987,0,0,1,104.05542,408H120.512A96.78331,96.78331,0,0,0,136.86835,422.54565ZM144.05542,408H160.512a96.78331,96.78331,0,0,0,16.35633,14.54565A79.64987,79.64987,0,0,1,144.05542,408Zm-16.01184-16a80.05387,80.05387,0,0,1-9.34381-16H141.491a95.58894,95.58894,0,0,0,7.39605,16Zm9.29712-32H113.60986a79.87655,79.87655,0,0,1,9.15277-56h21.97821a95.96356,95.96356,0,0,0-7.40014,56Zm16.73285-72H134.941a79.90636,79.90636,0,0,1,41.92737-22.54565A96.80468,96.80468,0,0,0,154.07355,288Zm69.98187-56H240v-.5769a96.792,96.792,0,0,0,16.86835,15.12255A79.64831,79.64831,0,0,1,224.05542,232Zm-16.01184-16a80.05555,80.05555,0,0,1-9.34381-16H221.491a95.58894,95.58894,0,0,0,7.39605,16Zm9.29712-32H193.60986a79.87655,79.87655,0,0,1,9.15277-56h21.97821a95.96356,95.96356,0,0,0-7.40014,56Zm16.73285-72H214.941a79.90553,79.90553,0,0,1,41.92737-22.54565A96.80354,96.80354,0,0,0,234.07355,112Zm-40,0H174.941a79.90553,79.90553,0,0,1,41.92737-22.54565A96.80354,96.80354,0,0,0,194.07355,112ZM200.512,232a96.78591,96.78591,0,0,0,16.35633,14.54565A79.64831,79.64831,0,0,1,184.05542,232Zm-63.64367,33.45435A96.80468,96.80468,0,0,0,114.07355,288H94.941A79.90636,79.90636,0,0,1,136.86835,265.45435ZM101.491,376a95.58894,95.58894,0,0,0,7.39605,16H88.04358a80.05387,80.05387,0,0,1-9.34381-16ZM68.887,392H48.04358a80.05387,80.05387,0,0,1-9.34381-16H61.491A95.58894,95.58894,0,0,0,68.887,392Zm-4.8316,16H80.512a96.78331,96.78331,0,0,0,16.35633,14.54565A79.64987,79.64987,0,0,1,64.05542,408ZM152,344a80,80,0,1,1,80,80A80.09041,80.09041,0,0,1,152,344Zm328,0a80.00591,80.00591,0,0,1-155.61835,26.14185,96.24523,96.24523,0,0,0-.00183-52.29053A80.00836,80.00836,0,0,1,480,344ZM392,168a80,80,0,1,1-80-80A80.09041,80.09041,0,0,1,392,168ZM176.86835,89.45435A96.80354,96.80354,0,0,0,154.07355,112H134.941A79.90553,79.90553,0,0,1,176.86835,89.45435ZM122.76263,128h21.97821a95.96356,95.96356,0,0,0-7.40014,56H113.60986a79.87655,79.87655,0,0,1,9.15277-56ZM160.512,232a96.78591,96.78591,0,0,0,16.35633,14.54565A79.64831,79.64831,0,0,1,144.05542,232ZM96.86835,265.45435A96.80468,96.80468,0,0,0,74.07355,288H54.941A79.90636,79.90636,0,0,1,96.86835,265.45435ZM42.76263,304H64.74084a95.96356,95.96356,0,0,0-7.40014,56H33.60986a79.87655,79.87655,0,0,1,9.15277-56Z"/>
  <path d="M254.16309,195.43262l14.45214-6.86524A47.55852,47.55852,0,0,1,264,168H248A63.438,63.438,0,0,0,254.16309,195.43262Z"/>
  <path d="M312,232a64,64,0,0,0,0-128v16a48,48,0,1,1-34.28662,81.59229l-11.42774,11.19824A63.5228,63.5228,0,0,0,312,232Z"/>
  <path d="M184,344H168a63.438,63.438,0,0,0,6.16309,27.43262l14.45214-6.86524A47.55852,47.55852,0,0,1,184,344Z"/>
  <path d="M232,280v16a48,48,0,1,1-34.28662,81.59229l-11.42774,11.19824A64,64,0,1,0,232,280Z"/>
  <path d="M342.16309,371.43262l14.45214-6.86524A47.55852,47.55852,0,0,1,352,344H336A63.438,63.438,0,0,0,342.16309,371.43262Z"/>
  <path d="M400,408a64,64,0,0,0,0-128v16a48,48,0,1,1-34.28662,81.59229l-11.42774,11.19824A63.5228,63.5228,0,0,0,400,408Z"/>
  </g>
</svg>
