<?xml version="1.0" encoding="iso-8859-1"?>
<!-- Generator: Adobe Illustrator 21.0.0, SVG Export Plug-In . SVG Version: 6.00 Build 0)  -->
<svg version="1.1" id="Capa_1" xmlns="http://www.w3.org/2000/svg" xmlns:xlink="http://www.w3.org/1999/xlink" x="0px" y="0px"
	 viewBox="0 0 512 512" style="enable-background:new 0 0 512 512;" xml:space="preserve">
<path style="fill:#F9CD45;" d="M436.373,79.642L13.721,204.597c-8.014,2.37-12.594,10.883-10.209,18.979l55.134,187.223
	c2.385,8.096,10.843,12.755,18.857,10.386l422.651-124.954c8.014-2.37,12.594-10.883,10.209-18.979L455.23,90.029
	C452.845,81.932,444.385,77.274,436.373,79.642z"/>
<g>
	<path style="fill:#F8B53C;" d="M380.85,322.712c-3.655,1.08-7.499-1.037-8.586-4.728l-4.154-14.108
		c-1.087-3.692,0.994-7.561,4.648-8.641c3.655-1.08,7.499,1.037,8.586,4.728l4.154,14.108
		C386.585,317.764,384.504,321.632,380.85,322.712z M363.954,265.342c-3.655,1.08-7.499-1.037-8.586-4.728l-4.154-14.108
		c-1.087-3.692,0.994-7.561,4.648-8.641c3.655-1.08,7.499,1.037,8.586,4.728l4.154,14.108
		C369.69,260.393,367.61,264.262,363.954,265.342z M347.059,207.971c-3.655,1.08-7.499-1.037-8.586-4.728l-4.154-14.108
		c-1.087-3.692,0.994-7.561,4.648-8.641c3.655-1.08,7.499,1.037,8.586,4.728l4.154,14.108
		C352.795,203.023,350.714,206.891,347.059,207.971z M330.165,150.601c-3.655,1.08-7.499-1.037-8.586-4.728l-4.154-14.108
		c-1.087-3.692,0.994-7.561,4.648-8.641s7.499,1.037,8.586,4.728l4.154,14.108C335.9,145.652,333.819,149.521,330.165,150.601z"/>
	<path style="fill:#F8B53C;" d="M272.199,188.252L58.692,251.373c-3.655,1.081-7.499-1.037-8.586-4.728
		c-1.087-3.692,0.994-7.561,4.648-8.641l213.507-63.122c3.655-1.08,7.499,1.037,8.586,4.728
		C277.935,183.303,275.854,187.171,272.199,188.252z"/>
</g>
<path style="fill:#FFF4F1;" d="M404.247,122.083l-40.584,11.999c-8.027,2.373-12.615,10.901-10.226,19.01l39.371,133.696
	c2.388,8.109,10.861,12.776,18.888,10.402l40.584-11.999c8.027-2.373,12.615-10.901,10.226-19.01l-39.371-133.696
	C420.747,124.376,412.273,119.71,404.247,122.083z"/>
<g>
	<path style="fill:#D0CFD1;" d="M444.313,253.394l-43.625,12.897c-2.893,0.856-6.119-1.445-7.206-5.136
		c-1.087-3.692,0.376-7.378,3.269-8.233l43.625-12.897c2.893-0.856,6.119,1.445,7.206,5.136
		C448.67,248.852,447.206,252.539,444.313,253.394z"/>
	<path style="fill:#D0CFD1;" d="M435.782,224.427l-43.625,12.897c-2.893,0.856-6.119-1.445-7.206-5.136
		c-1.087-3.692,0.376-7.378,3.269-8.233l43.625-12.897c2.893-0.856,6.119,1.445,7.206,5.136
		C440.139,219.886,438.676,223.571,435.782,224.427z"/>
	<path style="fill:#D0CFD1;" d="M427.253,195.459l-43.625,12.897c-2.893,0.856-6.119-1.445-7.206-5.136
		c-1.087-3.692,0.376-7.377,3.269-8.233l43.625-12.897c2.893-0.856,6.119,1.445,7.206,5.136
		C431.608,190.918,430.145,194.604,427.253,195.459z"/>
	<path style="fill:#D0CFD1;" d="M418.722,166.492l-43.625,12.897c-2.893,0.856-6.119-1.445-7.206-5.136
		c-1.087-3.692,0.376-7.378,3.269-8.233l43.625-12.897c2.893-0.856,6.119,1.445,7.206,5.136
		C423.078,161.95,421.615,165.636,418.722,166.492z"/>
</g>
<path style="fill:#F9E075;" d="M495.528,189.497H16.472C7.39,189.497,0,196.902,0,206.002v210.467
	c0,9.102,7.39,16.505,16.472,16.505h479.054c9.083,0,16.472-7.405,16.472-16.505V206.002
	C512,196.902,504.61,189.497,495.528,189.497z"/>
<g>
	<path style="fill:#F9CD45;" d="M363,423.885c-4.142,0-7.5-3.365-7.5-7.515v-15.859c0-4.15,3.358-7.515,7.5-7.515
		c4.143,0,7.5,3.365,7.5,7.515v15.859C370.5,420.52,367.143,423.885,363,423.885z M363,359.391c-4.142,0-7.5-3.365-7.5-7.515
		v-15.859c0-4.15,3.358-7.515,7.5-7.515c4.143,0,7.5,3.365,7.5,7.515v15.859C370.5,356.027,367.143,359.391,363,359.391z
		 M363,294.899c-4.142,0-7.5-3.365-7.5-7.515v-15.859c0-4.15,3.358-7.515,7.5-7.515c4.143,0,7.5,3.365,7.5,7.515v15.859
		C370.5,291.534,367.143,294.899,363,294.899z M363,230.405c-4.142,0-7.5-3.365-7.5-7.515v-15.859c0-4.15,3.358-7.515,7.5-7.515
		c4.143,0,7.5,3.365,7.5,7.515v15.859C370.5,227.041,367.143,230.405,363,230.405z"/>
	<path style="fill:#F9CD45;" d="M291,251.619H49c-4.142,0-7.5-3.365-7.5-7.515s3.358-7.515,7.5-7.515h242
		c4.142,0,7.5,3.365,7.5,7.515S295.142,251.619,291,251.619z"/>
	<path style="fill:#F9CD45;" d="M291,389.89H49c-4.142,0-7.5-3.365-7.5-7.515s3.358-7.515,7.5-7.515h242
		c4.142,0,7.5,3.365,7.5,7.515S295.142,389.89,291,389.89z"/>
</g>
<path style="fill:#A3E2EE;" d="M289,270.656H52c-9.099,0-16.5,7.417-16.5,16.532v51.1c0,9.116,7.402,16.532,16.5,16.532h237
	c9.099,0,16.5-7.417,16.5-16.532v-51.1C305.5,278.073,298.098,270.656,289,270.656z"/>
<path style="fill:#84D8E9;" d="M289,270.656h-23c9.099,0,16.5,7.417,16.5,16.532v51.1c0,9.116-7.402,16.532-16.5,16.532h23
	c9.099,0,16.5-7.417,16.5-16.532v-51.1C305.5,278.073,298.098,270.656,289,270.656z"/>
<path style="fill:#FFF4F1;" d="M448.999,223.564h-46c-9.098,0-16.5,7.417-16.5,16.532v150.295c0,9.116,7.403,16.532,16.5,16.532h46
	c9.098,0,16.5-7.417,16.5-16.532V240.096C465.5,230.98,458.097,223.564,448.999,223.564z"/>
<path style="fill:#ECEDEF;" d="M448.999,223.564h-23c9.098,0,16.5,7.417,16.5,16.532v150.295c0,9.116-7.403,16.532-16.5,16.532h23
	c9.098,0,16.5-7.417,16.5-16.532V240.096C465.5,230.98,458.097,223.564,448.999,223.564z"/>
<g>
	<path style="fill:#D0CFD1;" d="M450.456,371.604H401.01c-3.279,0-5.937-3.365-5.937-7.515c0-4.15,2.657-7.515,5.937-7.515h49.446
		c3.279,0,5.937,3.365,5.937,7.515C456.393,368.24,453.736,371.604,450.456,371.604z"/>
	<path style="fill:#D0CFD1;" d="M450.456,339.04H401.01c-3.279,0-5.937-3.365-5.937-7.515s2.657-7.515,5.937-7.515h49.446
		c3.279,0,5.937,3.365,5.937,7.515S453.736,339.04,450.456,339.04z"/>
	<path style="fill:#D0CFD1;" d="M450.456,306.477H401.01c-3.279,0-5.937-3.365-5.937-7.515c0-4.15,2.657-7.515,5.937-7.515h49.446
		c3.279,0,5.937,3.365,5.937,7.515C456.393,303.112,453.736,306.477,450.456,306.477z"/>
	<path style="fill:#D0CFD1;" d="M450.456,273.913H401.01c-3.279,0-5.937-3.365-5.937-7.515s2.657-7.515,5.937-7.515h49.446
		c3.279,0,5.937,3.365,5.937,7.515S453.736,273.913,450.456,273.913z"/>
</g>
<path style="fill:#F9CD45;" d="M495.528,189.497h-23c9.083,0,16.472,7.405,16.472,16.505v210.467
	c0,9.102-7.389,16.505-16.472,16.505h23c9.083,0,16.472-7.405,16.472-16.505V206.002C512,196.902,504.61,189.497,495.528,189.497z"
	/>
<g>
</g>
<g>
</g>
<g>
</g>
<g>
</g>
<g>
</g>
<g>
</g>
<g>
</g>
<g>
</g>
<g>
</g>
<g>
</g>
<g>
</g>
<g>
</g>
<g>
</g>
<g>
</g>
<g>
</g>
</svg>
