<svg id="Layer_1" enable-background="new 0 0 468 468" height="512" viewBox="0 0 468 468" width="512" xmlns="http://www.w3.org/2000/svg">
    <style type="text/css"><![CDATA[.coin{fill: #FFBE2E;}]]></style>
<g class="coin"><g><path d="m446.871 280.999c-23.02-8.332-48.575-6.408-70.117 5.281-.281.139-84.344 38.13-84.344 38.13-5.972 4.473-12.899 6.836-20.032 6.836h-52.891c-6.57 0-11.896-5.32-11.896-11.882 0-6.562 5.326-11.882 11.896-11.882h52.891c16.533 0 16.895-34.015.701-35.363l-73.718-.847c-13.008-.144-26.027-8.505-39.739-8.819-13.956-.319-27.159 3.24-38.892 10.85-16.338 10.597-27.492 27.437-34.968 45.094l39.884 100.718h114.681c10.35 0 20.571-2.716 29.556-7.856l177.976-101.814c5.411-4.588 9.591-9.946 7.755-18.174-1.034-4.626-4.354-8.681-8.743-10.272z"/><path d="m11.949 330.738 54.354 137.262 43.629-23.956-54.355-137.261z"/></g><g><path d="m339.483 0c-58.356 0-105.662 47.947-105.662 107.092s47.307 107.092 105.662 107.092 105.662-47.947 105.662-107.092c.001-59.145-47.306-107.092-105.662-107.092zm12.007 160.549v17.753h-24.45v-16.309c-9.446-1.404-17.841-5.163-25.092-10.861l8.768-24.591c7.111 5.587 17.271 10.692 26.007 10.692 6.7 0 11.03-3.075 11.03-7.835 0-3.094-.995-6.801-12.873-11.642-14.868-5.867-30.089-14.473-30.089-33.749 0-14.553 8.895-26.245 23.331-30.855v-17.271h24.299v15.74c7.393 1.154 15.301 4.759 21.807 8.956l-9.114 24.203c-6.551-4.369-15.841-8.609-23.295-8.609-8.149 0-9.029 4.176-9.029 5.971 0 2.811 1.049 5.237 14.617 10.882 13.268 5.443 28.496 14.372 28.496 35.285.001 14.941-9.527 27.437-24.413 32.24z"/></g></g></svg>