<svg id="Layer_1" enable-background="new 0 0 124 124" height="512" viewBox="0 0 124 124" width="512" xmlns="http://www.w3.org/2000/svg">
<style type="text/css"><![CDATA[.launchpad{fill: #000;}]]></style>
<g class="launchpad">
<path d="m20.097 57.303 17.514 1.323c1.841-4.545 3.856-9.053 6-13.42 2.337-4.784 5.102-10.444 8.271-15.901-18.745 8.143-28.372 20.523-31.785 27.998z"/><path d="m63.989 84.575 1.347 17.428c7.422-3.341 19.787-12.823 28.248-31.431-2.465 1.391-5.202 2.827-8.314 4.367-1.474.791-2.826 1.48-4.075 2.075-2.11 1.011-4.248 1.99-6.538 2.992-3.496 1.612-7.087 3.15-10.668 4.569z"/><path d="m122.933.212c-8.085-.487-19.141-.315-30.266 2.482l27.735 27.402c1.357-5.356 2.095-10.725 2.445-15.753.225-3.261.154-12.904.086-14.131z"/><circle cx="84.867" cy="37.821" r="7.5"/><path d="m87.96 3.997c-8.17 2.645-16.074 6.887-22.445 13.558-7.599 8.041-13.414 19.939-18.085 29.5-4.515 9.201-8.301 18.664-11.262 28.147l10.943 10.813c9.61-2.928 19.195-6.67 28.511-11.133 10.265-4.851 21.889-10.343 29.851-17.86 6.68-6.286 10.932-14.151 13.587-22.296zm-3.093 46.324c-6.904 0-12.5-5.596-12.5-12.5s5.596-12.5 12.5-12.5 12.5 5.596 12.5 12.5-5.596 12.5-12.5 12.5z"/><path d="m4.387 122.737c-1.838 0-2.797-2.273-1.528-3.58l29.086-29.945c.816-.838 2.159-.862 3.004-.052.843.81.867 2.147.052 2.987l-29.086 29.945c-.417.429-.972.645-1.528.645z"/><path d="m24.854 124c-1.795 0-2.773-2.186-1.587-3.515l18.851-21.098c.781-.871 2.121-.95 2.999-.176.877.775.956 2.11.177 2.982l-18.851 21.098c-.42.469-1.003.709-1.589.709z"/><path d="m3.107 103.779c-1.795 0-2.774-2.187-1.587-3.515l18.852-21.098c.78-.871 2.121-.95 2.999-.176.877.775.956 2.11.177 2.982l-18.852 21.098c-.42.469-1.003.709-1.589.709z"/>
</g>
</svg>