<svg xmlns="http://www.w3.org/2000/svg" viewBox="0 0 28.55 31.14"><defs><style>.cls-1{fill:#2c3046;}.cls-2{fill:#ffad40;}</style></defs><g id="Layer_2" data-name="Layer 2"><g id="Layer_1-2" data-name="Layer 1"><path class="cls-1" d="M28.12.13a.56.56,0,0,1,.27.72q-3,12.48-6,25a1.6,1.6,0,0,1-.05.21c-.13.45-.47.56-.83.27l-1.85-1.52Q17.42,22.91,15.14,21L15,20.93l-.24.22-3.58,3.53c-.17.18-.35.32-.61.23s-.29-.32-.32-.55q-.46-3.49-.94-7a.53.53,0,0,0-.27-.3L.63,13.31a1.34,1.34,0,0,1-.27-.13.45.45,0,0,1,0-.78,1.15,1.15,0,0,1,.25-.12L5.91,9.91l0,0c.38-.16.65-.11.76.16s0,.51-.39.68L2.06,12.64l-.32.14.28.15,7.32,3.26a.43.43,0,0,0,.54-.08L25.16,2.48a.41.41,0,0,0,.15-.19L25,2.42,8.58,9.73a2.85,2.85,0,0,1-.31.12.45.45,0,0,1-.37-.8,1.64,1.64,0,0,1,.29-.16L27.47.31l.35-.18ZM21.61,25.18,27,2.61l-.06,0-13,16.23ZM23.93,4.89l0,0L23.76,5q-6.65,5.93-13.3,11.84a.59.59,0,0,0-.22.6c.23,1.7.46,3.39.68,5.08a2.32,2.32,0,0,0,.08.3c.6-1.33,1.17-2.59,1.75-3.85a2.29,2.29,0,0,1,.3-.5c2.07-2.59,4.16-5.18,6.24-7.76Q21.6,7.78,23.93,4.89ZM12.25,22.25l0,0,1.91-2-.76-.63Z"/><path class="cls-1" d="M21.91,26.59a.76.76,0,0,1-.46-.19l-1.28-1-5.11-4.22-.05,0h0l-.15.14-.43.42-3.15,3.11a.71.71,0,0,1-.74.26.69.69,0,0,1-.41-.65L10,23.33c-.26-2-.52-4-.8-5.94,0-.06-.1-.17-.19-.21L1.94,14,.52,13.4a1.58,1.58,0,0,1-.23-.11A.6.6,0,0,1,0,12.8a.61.61,0,0,1,.28-.51l.22-.1L5.91,9.77a.82.82,0,0,1,.64-.06.52.52,0,0,1,.29.29c.08.2.14.58-.46.85L3,12.36l-1,.43,0,0,1.83.82,5.49,2.45a.3.3,0,0,0,.4-.07l14-12.43,1.05-.93L8.6,9.86,8.31,10a.54.54,0,0,1-.68-.31.55.55,0,0,1,.19-.72A1.83,1.83,0,0,1,8.1,8.8L13,6.63,27.42.19l.22-.11L27.82,0h.34l0,0a.7.7,0,0,1,.33.86L23.23,22.93l-.71,3a1,1,0,0,1,0,.17.66.66,0,0,1-.42.5A.37.37,0,0,1,21.91,26.59ZM15,20.77l.13.1a.71.71,0,0,1,.09.07l5.11,4.21L21.6,26.2a.36.36,0,0,0,.64-.21s0-.1,0-.16L23,22.88q2.64-11,5.28-22.06c.06-.28,0-.44-.18-.57h-.24l-.09,0-.24.12L8.2,9A1.67,1.67,0,0,0,8,9.15a.29.29,0,0,0-.12.41.3.3,0,0,0,.39.17l.26-.1L24.93,2.31l.24-.1.35-.14-.09.26a.58.58,0,0,1-.18.24l-1.34,1.2Q16.92,10,10,16.2a.56.56,0,0,1-.67.11c-1.83-.83-3.66-1.64-5.49-2.45L2,13,1.79,13l-.33-.18,1.42-.64,3.4-1.51c.46-.21.37-.43.33-.52a.3.3,0,0,0-.15-.16A.64.64,0,0,0,6,10l0,0L.6,12.41l-.18.09a.36.36,0,0,0-.17.29.37.37,0,0,0,.17.29.88.88,0,0,0,.2.09L2,13.8,9.09,17a.61.61,0,0,1,.34.4c.28,2,.54,4,.8,5.94l.14,1.05c0,.23.06.39.24.45s.3,0,.49-.2q1.56-1.56,3.14-3.1l.43-.43.17-.15Zm6.69,4.64-.15-.13-7.81-6.44.08-.1L26.93,2.43l.24.11,0,.1ZM14.08,18.8,21.54,25,26.8,3ZM11,23.15l-.12-.47c0-.07,0-.13,0-.18l-.23-1.69-.45-3.39a.73.73,0,0,1,.26-.72l10.8-9.61,2.5-2.22.09-.08.13-.11.16.16L24,5,18.14,12.3l-5,6.21a2,2,0,0,0-.29.47l-1.34,2.94ZM23.11,5.7,21.35,7.28,10.54,16.89a.48.48,0,0,0-.17.5l.45,3.39L11,22.39l.26-.58,1.33-2.94a2.68,2.68,0,0,1,.32-.52l5-6.21ZM12.32,22.44l-.23-.14,1.3-2.87,1,.82Zm1.16-2.61-.88,1.94L14,20.27Z"/><line class="cls-2" x1="2.34" y1="24.29" x2="7.03" y2="19.68"/><path class="cls-2" d="M2.34,24.79A.51.51,0,0,1,2,24.64a.49.49,0,0,1,0-.7l4.69-4.61a.5.5,0,1,1,.7.71L2.69,24.65A.54.54,0,0,1,2.34,24.79Z"/><line class="cls-2" x1="8.84" y1="29.79" x2="13.53" y2="25.18"/><path class="cls-2" d="M8.84,30.29a.51.51,0,0,1-.36-.15.49.49,0,0,1,0-.7l4.69-4.61a.5.5,0,1,1,.7.71L9.19,30.15A.54.54,0,0,1,8.84,30.29Z"/><line class="cls-2" x1="1.92" y1="30.64" x2="7.53" y2="25.18"/><path class="cls-2" d="M1.92,31.14a.5.5,0,0,1-.35-.86l5.61-5.45a.5.5,0,1,1,.7.71L2.27,31A.47.47,0,0,1,1.92,31.14Z"/></g></g></svg>