<svg xmlns="http://www.w3.org/2000/svg" viewBox="0 0 28 27.96"><defs><style>.cls-1{fill:#2c3046;}.cls-2{fill:#ffad40;}</style></defs><g id="Layer_2" data-name="Layer 2"><g id="Layer_1-2" data-name="Layer 1"><path class="cls-1" d="M25.35,28H2.69A2.7,2.7,0,0,1,0,25.33v-9a.76.76,0,0,1,1.52,0v9a1.17,1.17,0,0,0,1.13,1.13H25.35a1.78,1.78,0,0,0,1.14-1.13V15.87a.75.75,0,0,1,.75-.76.76.76,0,0,1,.76.76v9.44A3,3,0,0,1,25.35,28Z"/><path class="cls-1" d="M27.24,12.85a.75.75,0,0,1-.75-.76V2.65a1.12,1.12,0,0,0-1.14-1.14H2.69A1.35,1.35,0,0,0,1.56,2.65v9.44a.76.76,0,0,1-1.52,0V2.65A2.83,2.83,0,0,1,2.69,0H25.35A2.63,2.63,0,0,1,28,2.65v9.44A.76.76,0,0,1,27.24,12.85Z"/><path class="cls-2" d="M14,24.18a.76.76,0,0,1-.76-.76V4.53a.76.76,0,0,1,1.52,0V23.42A.76.76,0,0,1,14,24.18Z"/><path class="cls-2" d="M9.77,17.1h-9a.76.76,0,1,1,0-1.52h9a.76.76,0,1,1,0,1.52Z"/><path class="cls-2" d="M27.2,12.85h-9a.76.76,0,1,1,0-1.52h9a.76.76,0,1,1,0,1.52Z"/></g></g></svg>