<svg height="512" viewBox="0 0 512 512" width="512" xmlns="http://www.w3.org/2000/svg"><g id="flat"><path d="m464 304h-152l-16 16h-80l-16-16h-152v-152h152l16 16h80l16-16h152z" fill="#0045c7"/><path d="m48 168h144l16 16h112l16-16h128v-24h-416z" fill="#002e6e"/><path d="m160 24h192v32h-192z" fill="#0045c7"/><path d="m168 88h-32v-54a10 10 0 0 1 10-10h22z" fill="#002e6e"/><path d="m376 88h-32v-64h21.341a10 10 0 0 1 10 9.878z" fill="#002e6e"/><path d="m472 152h-160l-16 16h-80l-16-16h-160v-64h432z" fill="#007af6"/><path d="m144 122.73a48 48 0 0 1 8 86.83v94.44h-48v-94.44a48 48 0 0 1 8-86.83v37.27a16 16 0 0 0 32 0z" fill="#c1e3f7"/><path d="m128 312a8 8 0 0 1 -8-8v-80a8 8 0 0 1 16 0v80a8 8 0 0 1 -8 8z" fill="#afcee0"/><path d="m280 320h-48v-32l-8-16v-24h64v24l-8 16z" fill="#007af6"/><path d="m272 248h-32v-104l16-24 16 24z" fill="#afcee0"/><path d="m424 120h24a40 40 0 0 1 40 40 0 0 0 0 1 0 0h-64a0 0 0 0 1 0 0v-40a0 0 0 0 1 0 0z" fill="#c1e3f7"/><path d="m416 296h-48v-32a75.779 75.779 0 0 0 8-33.889v-30.111h32v30.111a75.779 75.779 0 0 0 8 33.889z" fill="#c36f53"/><path d="m352 120v56l8.821 2.94a22.2 22.2 0 0 1 15.179 21.06h32v-2.28a22.2 22.2 0 0 1 12.271-19.856l3.729-1.864v-56z" fill="#afcee0"/><path d="m368 272h48v32h-48z" fill="#f48b68"/><path d="m256 280h-32a8 8 0 0 1 0-16h32a8 8 0 0 1 0 16z" fill="#3191ff"/><path d="m72 88h368v32h-368z" fill="#3a97ff"/><path d="m472 488h-432v-184h160l16 16h80l16-16h160z" fill="#007af6"/><path d="m440 456h-368v-120h112l16 16h104l16-16h120z" fill="#3a97ff"/><circle cx="256" cy="392" fill="#0045c7" r="16"/><path d="m248 392h16v32h-16z" fill="#0045c7"/><path d="m344 416h40v16h-40z" fill="#5fb0ff"/><path d="m400 416h16v16h-16z" fill="#5fb0ff"/><path d="m312 112h40v72h-40z" fill="#c1e3f7"/><path d="m232 304h48v16h-48z" fill="#0072e6"/><g fill="#c6e9fd"><path d="m240 144h32l-16-24z"/><path d="m312 112h16v72h-16z"/></g></g></svg>