<svg xmlns="http://www.w3.org/2000/svg" viewBox="0 0 36.99 26.78"><defs><style>.cls-1{fill:#2c3046;}.cls-2{fill:#ffad40;}</style></defs><g id="Layer_2" data-name="Layer 2"><g id="Layer_1-2" data-name="Layer 1"><path class="cls-1" d="M35.74,19.53h-.81A1.51,1.51,0,0,1,33.42,18v-.81a1.51,1.51,0,0,1,1.51-1.5h.63a.64.64,0,1,1,0,1.28h-.63a.22.22,0,0,0-.22.22V18a.22.22,0,0,0,.22.22h.81a.64.64,0,0,1,.64.64A.64.64,0,0,1,35.74,19.53Z"/><path class="cls-2" d="M9.59,3H3.08A1.34,1.34,0,0,1,1.75,1.71V1.33A1.34,1.34,0,0,1,3.08,0H9.59a1.34,1.34,0,0,1,1.33,1.33v.38A1.34,1.34,0,0,1,9.59,3ZM3.08,1.29l0,.42,6.55,0,0-.42,0,0Z"/><path class="cls-1" d="M2.9,5.46H.64a.65.65,0,0,1,0-1.29H2.9a.65.65,0,0,1,0,1.29Z"/><path class="cls-2" d="M4.8,24.53a1.75,1.75,0,1,1,1.75-1.75A1.75,1.75,0,0,1,4.8,24.53Zm0-2.22a.47.47,0,1,0,.46.47A.47.47,0,0,0,4.8,22.31Z"/><path class="cls-2" d="M7.56,24.53a1.75,1.75,0,1,1,1.75-1.75A1.76,1.76,0,0,1,7.56,24.53Zm0-2.22a.47.47,0,1,0,.47.47A.47.47,0,0,0,7.56,22.31Z"/><path class="cls-2" d="M28.05,24.53a1.75,1.75,0,1,1,1.75-1.75A1.75,1.75,0,0,1,28.05,24.53Zm0-2.22a.47.47,0,1,0,.46.47A.47.47,0,0,0,28.05,22.31Z"/><path class="cls-2" d="M30.81,24.53a1.75,1.75,0,1,1,1.76-1.75A1.76,1.76,0,0,1,30.81,24.53Zm0-2.22a.47.47,0,1,0,.47.47A.47.47,0,0,0,30.81,22.31Z"/><path class="cls-1" d="M36.35,26.78H.73a.65.65,0,0,1-.64-.65V23.94a.65.65,0,0,1,.64-.65H36.35a.64.64,0,0,1,.64.65v2.19A.64.64,0,0,1,36.35,26.78Zm-35-1.29H35.71v-.91H1.37Z"/><path class="cls-2" d="M31.47,10.72H21.66a3.51,3.51,0,0,1-3-1.66L16.21,5.15a.65.65,0,0,1,0-.65.66.66,0,0,1,.57-.33h7.47a.65.65,0,0,1,0,1.29H17.92l1.83,2.91a2.22,2.22,0,0,0,1.91,1.06h9.81a.65.65,0,0,1,0,1.29Z"/><path class="cls-1" d="M31.56,22.22H.64A.65.65,0,0,1,0,21.57V2.39a.65.65,0,0,1,.64-.65H13.19A26.09,26.09,0,0,1,26.1,5.08c6.09,3.58,9.12,7.79,9.93,10.53.64,2.18.53,3.87-.32,5S33.52,22.22,31.56,22.22ZM1.29,20.93H31.56c1.53,0,2.58-.36,3.12-1.08s.63-2.11.11-3.87c-.7-2.4-3.57-6.4-9.34-9.79A25.18,25.18,0,0,0,13.22,3H1.29Z"/><path class="cls-1" d="M14.16,13.5H.64a.65.65,0,0,1,0-1.29H14.16a1,1,0,0,0,.91-.53,1,1,0,0,0,0-1L12.27,6a1,1,0,0,0-.89-.5H5.47a.65.65,0,0,1,0-1.29h5.91a2.32,2.32,0,0,1,2,1.13L16.16,10a2.33,2.33,0,0,1-2,3.53Z"/></g></g></svg>