<svg id="Layer_1" enable-background="new 0 0 510 510" height="512" viewBox="0 0 510 510" width="512" xmlns="http://www.w3.org/2000/svg"><g><path d="m30 210v300h225l10-150-10-150-112.5-10z" fill="#ffb454"/><path d="m480 210-112.5-10-112.5 10v300h225c0-16.651 0-283.349 0-300z" fill="#ff884d"/><path d="m180 0c-24.811 0-45 20.186-45 45v30l15 10 15-10c0-8.924 0-20.891 0-30 0-8.27 6.729-15 15-15h75l10-15-10-15c-20.194 0-63.236 0-75 0z" fill="#ff5c5c"/><path d="m375 75c0-8.924 0-20.891 0-30 0-24.812-20.187-45-45-45-20.194 0-63.236 0-75 0v30h75c8.27 0 15 6.729 15 15v30l14.958 10z" fill="#e40c57"/><path d="m0 75v135h255l10-67.5-10-67.5c-7.193 0-247.807 0-255 0z" fill="#ffdd54"/><path d="m510 75c-7.193 0-247.807 0-255 0v135h255c0-16.333 0-118.559 0-135z" fill="#ffb454"/><path d="m233.797 338.797c5.432-5.433 12.932-8.797 21.203-8.797l10-30-10-30c-5.246 0-9.754 0-15 0v31.898c-5.366 1.387-10.548 3.534-15.454 6.435-.188-.188-22.461-22.461-22.579-22.579-4.24 4.239-20.955 20.955-21.213 21.213 7.897 7.897 14.682 14.683 22.579 22.58-2.822 4.768-5.016 9.959-6.434 15.453-11.156 0-20.743 0-31.899 0v30h31.899c1.419 5.494 3.612 10.686 6.434 15.453-7.897 7.897-14.682 14.684-22.579 22.58 4.24 4.239 20.955 20.955 21.213 21.213.324-.324 22.441-22.443 22.579-22.58 4.932 2.918 10.122 5.058 15.454 6.435v31.898h15l10-30-10-30c-8.271 0-15.771-3.365-21.203-8.797-11.726-11.723-11.735-30.673 0-42.405z" fill="#525263"/><path d="m270 418.102c5.4-1.396 10.59-3.557 15.454-6.435.13.131 22.453 22.453 22.579 22.58l21.213-21.213c-.13-.131-22.453-22.453-22.579-22.58 2.799-4.73 5.004-9.916 6.435-15.453h31.898c0-10.492 0-19.508 0-30-11.156 0-20.742 0-31.898 0-1.344-5.201-3.455-10.416-6.435-15.454 2.317-2.317-8.363 8.363 22.579-22.579-7.419-7.419-13.794-13.794-21.213-21.213-2.317 2.317 8.363-8.363-22.579 22.579-4.871-2.881-10.058-5.04-15.454-6.435 0-11.156 0-20.742 0-31.898-5.246 0-9.754 0-15 0v60c16.541 0 30 13.457 30 30 0 16.54-13.457 30-30 30v60h15c0-11.157 0-20.743 0-31.899z" fill="#2e2e2e"/><path d="m105 150h60v90h-60z" fill="#ff5c5c"/><path d="m345 240h60c0-10.889 0-79.039 0-90-7.259 0-52.693 0-60 0z" fill="#e40c57"/></g></svg>