<svg id="Layer_1" enable-background="new 0 0 130 130" height="512" viewBox="0 0 130 130" width="512" xmlns="http://www.w3.org/2000/svg"><g><circle cx="65" cy="65" fill="#f34b50" r="64"/><g><g><path d="m97.54511 33.28832 10.93807 28.05525c.37926.97278.09299 2.09942-.74438 2.72309-.95745.7131-1.67517 1.67309-2.09844 2.75094-.36234.92412-.50729 1.93342-.4025 2.94659.10743 1.0387-.52762 2.01213-1.50053 2.39145l-61.36119 23.92335c-.97932.38182-2.12964.11736-2.75787-.72537-.66227-.88838-1.53864-1.57133-2.52468-2.00368-.98605-.43236-2.08177-.61411-3.18274-.50007-1.04364.10809-2.01534-.55824-2.39646-1.53579l-10.93956-28.05904c-.37509-.96206-.11228-2.09171.7178-2.70589 1.02365-.75741 1.77778-1.7995 2.19251-2.96703.30604-.86156.42726-1.79144.33558-2.72564-.10459-1.06574.5789-2.05448 1.57661-2.44347l61.28836-23.89497c.97753-.38112 2.1257-.11686 2.75252.72452 1.32251 1.7752 3.50172 2.73423 5.70617 2.50659 1.0456-.10795 2.0189.55982 2.40073 1.53917z" fill="#e53946"/></g><g><path d="m109.72797 53.76228 4.29095 30.5806c.14879 1.06035-.40295 2.11708-1.38586 2.54174-1.12389.48556-2.06682 1.2741-2.74374 2.24979-.57982.83666-.96278 1.80967-1.09746 2.8455-.13807 1.06194-1.00167 1.88342-2.06216 2.03223l-66.88472 9.38503c-1.06748.14978-2.153-.38577-2.58095-1.37511-.45113-1.04294-1.16444-1.93143-2.04638-2.59573-.88194-.66431-1.9325-1.10442-3.05814-1.2506-1.06703-.13856-1.8794-1.03297-2.02892-2.09852l-4.29154-30.58472c-.14714-1.04866.38187-2.11394 1.35528-2.53085 1.20041-.51414 2.19907-1.37601 2.88864-2.44322.50886-.78753.84941-1.68687.97851-2.64082.14728-1.08825 1.06285-1.91357 2.15037-2.06617l66.80534-9.37389c1.06552-.14951 2.14894.38532 2.57581 1.37299.90062 2.08385 2.84892 3.5555 5.10261 3.84887 1.06893.13915 1.88256 1.03538 2.03236 2.10288z" fill="#e53946"/></g></g><g><g><path d="m20.94868 36.05383c-1.1476 0-2.08899.93301-2.08899 2.08893 0-1.15591-.93292-2.08893-2.08899-2.08894 1.15607 0 2.08899-.94128 2.08899-2.08898 0 1.14771.94139 2.08899 2.08899 2.08899z" fill="#e53946"/><path d="m20.51221 35.03355c-1.1476 0-2.08899.93301-2.08899 2.08893 0-1.15591-.93292-2.08894-2.08899-2.08894 1.15607 0 2.08899-.94128 2.08899-2.08898.00001 1.1477.94139 2.08898 2.08899 2.08899z" fill="#ff6c77"/></g><g><path d="m96.18133 23.41725c-1.14761 0-2.08899.93301-2.08899 2.08893 0-1.15592-.93291-2.08894-2.08899-2.08894 1.15607 0 2.08899-.94128 2.08899-2.08898 0 1.1477.94138 2.08898 2.08899 2.08899z" fill="#e53946"/><path d="m95.74486 22.39696c-1.1476 0-2.08898.93301-2.08899 2.08893.00001-1.15592-.93291-2.08893-2.08898-2.08894 1.15607 0 2.08899-.94128 2.08899-2.08898 0 1.14771.94138 2.08899 2.08898 2.08899z" fill="#ff6c77"/></g><g><path d="m42.98203 22.28933c-1.35379 0-2.46432 1.10065-2.46432 2.46425 0-1.3636-1.10054-2.46426-2.46432-2.46426 1.36378 0 2.46432-1.1104 2.46432-2.46431 0 1.35391 1.11052 2.46432 2.46432 2.46432z" fill="#e53946"/><path d="m42.54556 21.26904c-1.35379 0-2.46432 1.10065-2.46432 2.46425 0-1.3636-1.10054-2.46426-2.46432-2.46426 1.36378 0 2.46432-1.1104 2.46432-2.46431 0 1.35392 1.11052 2.46432 2.46432 2.46432z" fill="#ff6c77"/></g><g><path d="m20.51221 94.34026c-1.33901-.00001-2.4374 1.08862-2.4374 2.43733 0-1.34871-1.08851-2.43734-2.4374-2.43734 1.34888 0 2.4374-1.09827 2.4374-2.43739 0 1.33911 1.0984 2.43739 2.4374 2.4374z" fill="#e53946"/><path d="m19.8179 92.71722c-1.33901 0-2.4374 1.08863-2.4374 2.43733 0-1.3487-1.08851-2.43734-2.4374-2.43734 1.34888 0 2.4374-1.09827 2.4374-2.43739 0 1.33912 1.0984 2.4374 2.4374 2.4374z" fill="#ff6c77"/></g><g><path d="m112.89529 98.40065c-1.339 0-2.4374 1.08862-2.4374 2.43733 0-1.34871-1.08851-2.43734-2.43739-2.43734 1.34888 0 2.4374-1.09827 2.4374-2.43739 0 1.33912 1.09839 2.4374 2.43739 2.4374z" fill="#e53946"/><path d="m112.20098 96.77762c-1.339 0-2.4374 1.08863-2.4374 2.43733 0-1.3487-1.08851-2.43734-2.43739-2.43734 1.34888 0 2.4374-1.09827 2.4374-2.43739 0 1.33912 1.09839 2.4374 2.43739 2.4374z" fill="#ff6c77"/></g><g><path d="m56.92424 30.73826c-.85937 0-1.56431.69868-1.56431 1.56427 0-.86559-.6986-1.56427-1.56431-1.56428.86571 0 1.56431-.70486 1.56431-1.56431 0 .85945.70494 1.56432 1.56431 1.56432z" fill="#e53946"/><path d="m56.48777 29.71798c-.85937 0-1.56431.69868-1.56431 1.56427 0-.86559-.6986-1.56427-1.56431-1.56427.86571 0 1.56431-.70486 1.56431-1.56431 0 .85944.70495 1.56431 1.56431 1.56431z" fill="#ff6c77"/></g><g><path d="m65.84267 13.07025c1.42247 0 2.58933-1.15648 2.58933-2.58924 0 1.43277 1.15636 2.58925 2.58933 2.58925-1.43297 0-2.58933 1.16672-2.58933 2.58931 0-1.42259-1.16686-2.58932-2.58933-2.58932z" fill="#e53946"/><path d="m65.4062 12.04997c1.42247 0 2.58933-1.15648 2.58933-2.58924 0 1.43277 1.15636 2.58925 2.58933 2.58925-1.43297 0-2.58933 1.16672-2.58933 2.58931.00001-1.42259-1.16686-2.58932-2.58933-2.58932z" fill="#ff6c77"/></g><g><path d="m7.64096 63.10464c1.42247 0 2.58933-1.15648 2.58933-2.58924 0 1.43277 1.15637 2.58925 2.58933 2.58925-1.43297 0-2.58933 1.16672-2.58933 2.58931 0-1.42259-1.16686-2.58932-2.58933-2.58932z" fill="#e53946"/><path d="m7.20449 62.08436c1.42247 0 2.58933-1.15648 2.58933-2.58924 0 1.43277 1.15637 2.58925 2.58933 2.58925-1.43297 0-2.58933 1.16672-2.58933 2.58931 0-1.42259-1.16686-2.58932-2.58933-2.58932z" fill="#ff6c77"/></g><g><path d="m117.99306 62.34684c0-1.66829-1.35633-3.03679-3.03668-3.03679 1.68035 0 3.03668-1.35619 3.03668-3.03678 0 1.68059 1.36834 3.03679 3.03675 3.03679-1.66841 0-3.03675 1.3685-3.03675 3.03678z" fill="#e53946"/><path d="m117.14576 60.36619c0-1.66829-1.35632-3.03679-3.03667-3.03679 1.68035 0 3.03667-1.35619 3.03667-3.03678 0 1.68059 1.36835 3.03679 3.03676 3.03679-1.66841 0-3.03676 1.3685-3.03676 3.03678z" fill="#ff6c77"/></g><g><path d="m45.95105 117.29534c0-1.66829-1.35633-3.03679-3.03668-3.0368 1.68036.00001 3.03668-1.35619 3.03668-3.03678 0 1.6806 1.36834 3.03679 3.03675 3.0368-1.66841-.00001-3.03675 1.36849-3.03675 3.03678z" fill="#e53946"/><path d="m45.10375 115.31469c0-1.66828-1.35633-3.03679-3.03668-3.03679 1.68035 0 3.03668-1.35619 3.03668-3.03678 0 1.68059 1.36834 3.03679 3.03675 3.03679-1.66841 0-3.03675 1.3685-3.03675 3.03678z" fill="#ff6c77"/></g><g><path d="m73.77168 111.47626c0-1.66829-1.35633-3.03679-3.03668-3.0368 1.68035.00001 3.03668-1.35619 3.03668-3.03678 0 1.6806 1.36834 3.03679 3.03675 3.0368-1.66842 0-3.03675 1.3685-3.03675 3.03678z" fill="#e53946"/><path d="m72.92437 109.49561c0-1.66828-1.35632-3.03679-3.03667-3.03679 1.68035 0 3.03667-1.35619 3.03668-3.03679-.00001 1.6806 1.36834 3.03679 3.03675 3.0368-1.66841-.00001-3.03676 1.3685-3.03676 3.03678z" fill="#ff6c77"/></g></g><g><g><path d="m94.82646 32.24512 10.80727 27.71973c.37473.96115.09187 2.07432-.73548 2.69053-.94601.70458-1.65514 1.65308-2.07335 2.71804-.35801.91307-.50121 1.91029-.39768 2.91135.10613 1.02628-.52132 1.98808-1.48259 2.36285l-60.62737 23.63726c-.96761.37725-2.10418.11595-2.72489-.7167-.65435-.87775-1.52024-1.55254-2.49449-1.97972-.97426-.42719-2.05688-.60676-3.14467-.49409-1.03116.1068-1.99124-.55155-2.36781-1.51742l-10.80872-27.72348c-.3706-.95056-.11094-2.0667.70921-2.67353 1.01141-.74835 1.75652-1.77797 2.16629-2.93154.30238-.85126.42215-1.77001.33157-2.69305-.10334-1.05299.57198-2.02991 1.55776-2.41425l60.55541-23.6092c.96584-.37656 2.10028-.11546 2.7196.71585 1.30669 1.75397 3.45985 2.70153 5.63793 2.47662 1.03309-.10667 1.99475.55311 2.37201 1.52075z" fill="#dddce0"/><g><g><path d="m72.4373 35.5647c-.18015.07024-.38277-.0187-.45301-.19886l-.38122-.9778c-.07024-.18016.01871-.38277.19886-.45301s.38277.0187.453.19886l.38123.9778c.07024.18016-.01871.38278-.19886.45301z" fill="#c9c8ce"/></g><g><path d="m86.16374 70.77189c-.18015.07024-.38277-.01871-.453-.19886l-.73539-1.88622c-.07024-.18015.0187-.38277.19886-.453.18015-.07024.38277.0187.453.19886l.73539 1.88621c.07024.18016-.01871.38277-.19886.45301zm-1.71599-4.40138c-.18015.07024-.38277-.01871-.45301-.19886l-.73514-1.88557c-.07024-.18015.0187-.38277.19886-.45301.18015-.07024.38277.01871.453.19886l.73515 1.88557c.07024.18016-.0187.38278-.19886.45301zm-1.71574-4.40073c-.18015.07024-.38277-.01871-.45301-.19886l-.73514-1.88558c-.07024-.18015.01871-.38277.19886-.45301s.38277.01871.453.19886l.73515 1.88557c.07024.18016-.01871.38278-.19886.45302zm-1.71574-4.40075c-.18015.07024-.38277-.0187-.45301-.19886l-.73539-1.88621c-.07024-.18015.01871-.38277.19886-.45301s.38277.0187.45301.19886l.73539 1.88621c.07023.18016-.01871.38278-.19886.45301zm-1.71575-4.40073c-.18015.07024-.38277-.0187-.453-.19886l-.73539-1.88621c-.07024-.18016.0187-.38277.19885-.45301.18016-.07024.38277.0187.45301.19886l.73539 1.88621c.07024.18015-.01871.38277-.19886.45301zm-1.71574-4.40074c-.18015.07024-.38277-.01871-.453-.19886l-.73539-1.88621c-.07024-.18016.0187-.38277.19885-.45301.18016-.07024.38277.0187.45301.19886l.73539 1.88622c.07023.18015-.01871.38276-.19886.453zm-1.71575-4.40074c-.18015.07024-.38277-.01871-.453-.19886l-.73539-1.88622c-.07024-.18015.0187-.38277.19886-.45301.18015-.07024.38277.01871.453.19886l.73539 1.88621c.07024.18017-.0187.38278-.19886.45302zm-1.71574-4.40074c-.18015.07024-.38277-.0187-.453-.19886l-.73539-1.88622c-.07024-.18015.0187-.38277.19886-.45301.18015-.07024.38277.0187.453.19886l.73539 1.88621c.07024.18017-.01871.38278-.19886.45302z" fill="#c9c8ce"/></g><g><path d="m87.52531 74.26421c-.18015.07024-.38277-.01871-.453-.19886l-.38122-.9778c-.07024-.18015.0187-.38277.19885-.45301.18016-.07024.38277.01871.45301.19886l.38122.97781c.07025.18015-.0187.38277-.19886.453z" fill="#c9c8ce"/></g></g><g fill="#ededed"><path d="m62.17208 38.62511c.17548.45008-.04315.96184-.49332 1.13735l-9.01618 3.51521c-.45017.17551-.95749-.05322-1.13297-.5033-.17264-.44282.04598-.95457.49615-1.13008l9.01618-3.51521c.45018-.17551.9575.05321 1.13014.49603z"/><path d="m49.78742 43.45361c.17548.45008-.04315.96184-.49332 1.13735l-20.95067 8.1682c-.4429.17268-.95749-.05322-1.13297-.5033-.17265-.44281.05325-.95741.49615-1.13008l20.95068-8.1682c.45017-.17551.95749.05322 1.13013.49603z"/><g><path d="m29.58672 81.828c-.45008.17548-.96184-.04315-1.13735-.49332l-2.06797-5.30417c-.17551-.45017.05321-.95749.5033-1.13297.44282-.17265.95457.04598 1.13008.49615l2.06797 5.30416c.17551.45018-.05321.95751-.49603 1.13015z"/><path d="m26.20546 73.15534c-.45008.17548-.96184-.04315-1.13735-.49332l-4.3337-11.11559c-.17268-.44291.05321-.95749.5033-1.13297.44282-.17265.9574.05325 1.13008.49615l4.3337 11.11559c.17551.45017-.05321.9575-.49603 1.13014z"/></g></g><g><g><path d="m32.33704 65.40513c-.18146-.46543-.1587-.96421.02979-1.39361.1845-.42778.53618-.78217 1.00567-.96522l32.95551-12.84862c.93487-.36448 1.99435.10065 2.35882 1.03547.18303.46944.16029.96827-.02977 1.39365-.18851.42935-.5402.78374-1.00567.96522l-32.95551 12.84862c-.93888.36605-1.9928-.09668-2.35884-1.03551z" fill="#c9c8ce"/></g><g><path d="m35.18366 72.70647c-.18146-.46542-.1587-.9642.0298-1.3936.18449-.42779.53618-.78218 1.00567-.96523l32.95551-12.84862c.93487-.36448 1.99435.10065 2.35883 1.03547.18302.46944.16028.96827-.02978 1.39365-.18851.42935-.5402.78374-1.00567.96522l-32.95552 12.84863c-.93889.36605-1.99281-.09668-2.35884-1.03552z" fill="#c9c8ce"/></g><g><path d="m38.03028 80.00781c-.18146-.46543-.1587-.96421.0298-1.39361.1845-.42778.53618-.78217 1.00567-.96522l17.13528-6.68066c.93487-.36449 1.99435.10065 2.35882 1.03547.18303.46944.16029.96827-.02977 1.39365-.18851.42934-.5402.78374-1.00567.96522l-17.13528 6.68066c-.93889.36606-1.99282-.09667-2.35885-1.03551z" fill="#c9c8ce"/></g></g></g><path d="m104.79739 62.5489c-.95068.70638-1.65706 1.65717-2.07359 2.71673-.36237.91464-.50718 1.91076-.39862 2.91605.10877 1.02319-.52509 1.98316-1.48505 2.36343l-60.62833 23.63564c-.96903.38027-2.101.11762-2.7258-.71544-.65199-.87839-1.52131-1.55757-2.49034-1.98316-.97809-.4257-2.05568-.60677-3.14232-.48904-1.03248.10867-1.99245-.55251-2.37272-1.52142l-.15388-.40746c.20827.04521.41653.05428.63386.03615 1.08665-.11762 2.16423.06345 3.14233.48904.96903.43466 1.83835 1.10478 2.49034 1.98316.62479.83328 1.75676 1.09583 2.7258.71544l60.62833-23.63555c.95996-.37132 1.59382-1.34023 1.48527-2.36354-.10877-1.00517.03625-2.00129.3984-2.91593.41653-1.05956 1.12291-2.01035 2.07381-2.71673.824-.61584 1.10478-1.72968.73357-2.68954l-10.6496-27.31223c.76961.14492 1.43973.7244 1.72958 1.48516l10.81253 27.7197c.37143.95985.09065 2.0737-.73357 2.68954z" fill="#c9c8ce"/><g><path d="m107.88599 51.92031 4.29096 30.5806c.14879 1.06034-.40295 2.11708-1.38587 2.54174-1.12388.48556-2.06681 1.2741-2.74373 2.24979-.57982.83666-.96279 1.80967-1.09746 2.8455-.13807 1.06194-1.00167 1.88342-2.06216 2.03223l-66.88472 9.38503c-1.06748.14979-2.153-.38576-2.58095-1.37511-.45113-1.04294-1.16444-1.93143-2.04638-2.59574-.88194-.6643-1.9325-1.10441-3.05814-1.25059-1.06703-.13856-1.8794-1.03297-2.02891-2.09853l-4.29154-30.58472c-.14714-1.04866.38187-2.11394 1.35528-2.53086 1.20041-.51414 2.19906-1.37601 2.88864-2.44322.50886-.78753.84941-1.68687.97851-2.64082.14728-1.08825 1.06285-1.91357 2.15037-2.06617l66.80533-9.37389c1.06553-.14951 2.14895.38533 2.57581 1.37299.90062 2.08385 2.84892 3.5555 5.10261 3.84887 1.06893.13916 1.88256 1.0354 2.03235 2.1029z" fill="#ededed"/><g><g><path d="m84.47884 49.92241c-.19875.02789-.38213-.11037-.41003-.30912l-.15136-1.07872c-.02789-.19875.11037-.38214.30912-.41003s.38213.11037.41003.30912l.15136 1.07871c.02789.19876-.11037.38215-.30912.41004z" fill="#dddce0"/></g><g><path d="m89.92885 88.76321c-.19875.02789-.38213-.11037-.41003-.30912l-.29198-2.08088c-.02789-.19875.11037-.38214.30911-.41003.19875-.02789.38214.11037.41003.30912l.29198 2.08088c.02789.19875-.11037.38214-.30911.41003zm-.68132-4.85562c-.19875.02789-.38214-.11037-.41003-.30912l-.29189-2.08018c-.02789-.19875.11037-.38213.30912-.41002s.38213.11037.41003.30911l.29188 2.08018c.02789.19874-.11037.38213-.30911.41003zm-.68123-4.85493c-.19875.02789-.38214-.11037-.41003-.30912l-.29189-2.08018c-.02789-.19875.11037-.38214.30912-.41003s.38214.11037.41003.30912l.29189 2.08018c.02789.19875-.11037.38214-.30912.41003zm-.68123-4.85493c-.19875.02789-.38213-.11037-.41003-.30911l-.29198-2.08089c-.02789-.19875.11037-.38213.30911-.41003.19875-.02789.38214.11037.41003.30912l.29198 2.08088c.0279.19876-.11036.38215-.30911.41003zm-.68122-4.85492c-.19875.02789-.38214-.11037-.41003-.30912l-.29198-2.08088c-.02789-.19875.11037-.38214.30912-.41003s.38213.11037.41003.30911l.29198 2.08089c.02789.19875-.11037.38214-.30912.41003zm-.68123-4.85493c-.19875.02789-.38214-.11037-.41003-.30912l-.29198-2.08088c-.02789-.19875.11037-.38214.30912-.41003s.38214.11037.41003.30912l.29198 2.08088c.02789.19875-.11037.38215-.30912.41003zm-.68123-4.85492c-.19875.02789-.38213-.11037-.41003-.30912l-.29198-2.08088c-.02789-.19875.11037-.38214.30912-.41003s.38213.11037.41002.30912l.29198 2.08088c.0279.19875-.11035.38214-.30911.41003zm-.68122-4.85492c-.19875.02789-.38214-.11037-.41003-.30912l-.29198-2.08088c-.02789-.19875.11037-.38214.30912-.41003s.38214.11037.41003.30912l.29198 2.08088c.02789.19875-.11037.38214-.30912.41003z" fill="#dddce0"/></g><g><path d="m90.46945 92.61597c-.19875.02789-.38213-.11037-.41002-.30912l-.15137-1.07871c-.02789-.19875.11037-.38214.30912-.41003s.38214.11037.41003.30912l.15136 1.07871c.02789.19875-.11036.38214-.30912.41003z" fill="#dddce0"/></g></g><g fill="#fff"><path d="m73.37923 50.56023c.06967.49654-.27345.96117-.77008 1.03086l-9.94674 1.39569c-.49663.06969-.95438-.28258-1.02405-.77911-.06855-.48852.27457-.95316.77121-1.02284l9.94674-1.39569c.49663-.0697.95437.28257 1.02292.77109z"/><path d="m59.71635 52.47736c.06967.49654-.27345.96117-.77008 1.03086l-23.11299 3.24313c-.48862.06856-.95438-.28258-1.02405-.77911-.06855-.48852.28259-.95428.77121-1.02284l23.11299-3.24313c.49663-.0697.95437.28257 1.02292.77109z"/><g><path d="m30.14189 86.40889c-.49653.06967-.96117-.27345-1.03086-.77009l-.82108-5.85159c-.06968-.49663.28258-.95438.77911-1.02405.48852-.06855.95316.27457 1.02284.7712l.82108 5.85159c.06969.49664-.28257.95439-.77109 1.02294z"/><path d="m28.79938 76.84115c-.49654.06967-.96117-.27345-1.03086-.77008l-1.72067-12.26279c-.06856-.48862.28258-.95438.77911-1.02405.48852-.06855.95428.28259 1.02284.77121l1.72067 12.26279c.06969.49663-.28257.95437-.77109 1.02292z"/></g></g><g><g><path d="m36.8447 70.47858c-.07205-.51346.07014-1.0118.36315-1.40046.28859-.38799.72849-.66188 1.24644-.73456l36.35685-5.10146c1.03135-.14472 1.99031.57829 2.13502 1.60959.07267.51789-.06952 1.01629-.36314 1.40051-.29301.3886-.73293.66251-1.24644.73456l-36.35685 5.10146c-1.03579.14535-1.9897-.5739-2.13503-1.60964z" fill="#dddce0"/></g><g><path d="m37.97493 78.53348c-.07204-.51347.07014-1.01181.36315-1.40047.28859-.38798.72849-.66188 1.24644-.73456l36.35685-5.10146c1.03135-.14471 1.99031.57829 2.13502 1.60959.07267.51789-.06952 1.0163-.36314 1.40052-.29301.3886-.73293.6625-1.24644.73455l-36.35685 5.10147c-1.03578.14533-1.98969-.57391-2.13503-1.60964z" fill="#dddce0"/></g><g><path d="m39.10517 86.58836c-.07204-.51347.07014-1.01181.36315-1.40047.28859-.38798.72849-.66187 1.24644-.73455l18.90381-2.65252c1.03136-.14471 1.99031.57829 2.13502 1.60959.07267.51789-.06952 1.0163-.36314 1.40052-.29301.3886-.73292.6625-1.24644.73455l-18.90381 2.65253c-1.03579.14534-1.9897-.57392-2.13503-1.60965z" fill="#dddce0"/></g></g></g><path d="m110.79148 85.04384c-1.12785.48866-2.06777 1.26875-2.74471 2.2463-.58263.83654-.9585 1.81397-1.09963 2.84798-.13148 1.06211-.99636 1.87983-2.05836 2.03014l-66.88438 9.38976c-1.07163.15053-2.15245-.38528-2.58477-1.38165-.23498-.54511-.54523-1.05259-.92133-1.50373.19757.0187.40433.0187.61108-.00941l66.88438-9.38976c1.06223-.15054 1.92688-.96815 2.05836-2.03037.14112-1.03377.517-2.01132 1.09985-2.84785.67672-.97755 1.61663-1.75764 2.74448-2.24641.98696-.42292 1.53219-1.48515 1.38165-2.53773l-4.19199-29.94584c.2538.06586.50759.12231.7708.15042 1.062.14101 1.87984 1.03389 2.03014 2.1054l4.28608 30.57552c.1503 1.06209-.39469 2.1242-1.38165 2.54723z" fill="#dddce0"/></g></g></svg>