<svg id="Layer_1" enable-background="new 0 0 512 512" height="512" viewBox="0 0 512 512" width="512" xmlns="http://www.w3.org/2000/svg"><g><path d="m2.191 251.735 57.156-40.939c3.472-2.487 8.301-.006 8.301 4.265v19.324c0 2.078 1.685 3.763 3.763 3.763h52.897c3.025 0 5.478 2.453 5.478 5.478v24.747c0 3.025-2.452 5.478-5.478 5.478h-52.897c-2.078 0-3.763 1.685-3.763 3.763v19.324c0 4.271-4.83 6.752-8.301 4.265l-57.156-40.938c-2.921-2.092-2.921-6.437 0-8.53z" fill="#00d2fc"/><path d="m124.308 253.763h-52.897c-2.078 0-3.763 1.685-3.763 3.763v19.324c0 4.271-4.83 6.752-8.301 4.265l-49.087-35.159-8.068 5.779c-2.922 2.093-2.922 6.438 0 8.53l57.156 40.939c3.472 2.487 8.301.006 8.301-4.265v-19.324c0-2.078 1.685-3.763 3.763-3.763h52.897c3.026 0 5.478-2.453 5.478-5.478v-20.088c-.001 3.025-2.453 5.477-5.479 5.477z" fill="#00c2fb"/><path d="m509.809 251.735-57.156-40.939c-3.472-2.487-8.301-.006-8.301 4.265v19.324c0 2.078-1.685 3.763-3.763 3.763h-52.897c-3.025 0-5.478 2.453-5.478 5.478v24.747c0 3.025 2.452 5.478 5.478 5.478h52.897c2.078 0 3.763 1.685 3.763 3.763v19.324c0 4.271 4.83 6.752 8.301 4.265l57.156-40.939c2.922-2.091 2.922-6.436 0-8.529z" fill="#ffc365"/><path d="m509.809 251.735-8.069-5.779-49.087 35.159c-3.472 2.487-8.301.006-8.301-4.265v-19.324c0-2.078-1.685-3.763-3.763-3.763h-52.897c-3.026 0-5.478-2.453-5.478-5.478v20.088c0 3.025 2.452 5.478 5.478 5.478h52.897c2.078 0 3.763 1.685 3.763 3.763v19.324c0 4.271 4.83 6.752 8.301 4.265l57.156-40.939c2.922-2.091 2.922-6.436 0-8.529z" fill="#ffa90f"/><path d="m79.546 73.514 69.363 11.467c4.213.696 5.874 5.866 2.854 8.886l-13.664 13.664c-1.469 1.469-1.469 3.852 0 5.321l37.404 37.404c2.139 2.139 2.139 5.608 0 7.747l-17.499 17.499c-2.139 2.139-5.608 2.139-7.747 0l-37.404-37.404c-1.47-1.47-3.852-1.47-5.321 0l-13.664 13.664c-3.02 3.02-8.189 1.359-8.886-2.854l-11.468-69.362c-.586-3.546 2.486-6.618 6.032-6.032z" fill="#f27182"/><path d="m164.461 161.298-37.404-37.404c-1.47-1.47-3.852-1.47-5.321 0l-13.664 13.664c-3.02 3.02-8.189 1.359-8.886-2.854l-9.849-59.571-9.792-1.619c-3.545-.586-6.617 2.486-6.031 6.032l11.467 69.363c.696 4.213 5.866 5.874 8.886 2.854l13.664-13.664c1.469-1.469 3.852-1.469 5.321 0l37.404 37.404c2.139 2.139 5.608 2.139 7.747 0l14.205-14.205c-2.139 2.139-5.607 2.139-7.747 0z" fill="#ed5469"/><path d="m438.486 432.454-11.467-69.363c-.696-4.213-5.866-5.874-8.886-2.854l-13.664 13.664c-1.469 1.469-3.852 1.469-5.321 0l-37.404-37.404c-2.139-2.139-5.608-2.139-7.747 0l-17.499 17.499c-2.139 2.139-2.139 5.608 0 7.747l37.404 37.404c1.47 1.47 1.47 3.852 0 5.321l-13.664 13.664c-3.02 3.02-1.359 8.189 2.854 8.886l69.363 11.467c3.545.587 6.617-2.485 6.031-6.031z" fill="#f27182"/><path d="m438.486 432.454-1.619-9.792-59.571-9.848c-4.213-.696-5.874-5.866-2.854-8.886l13.664-13.664c1.469-1.469 1.469-3.852 0-5.321l-37.404-37.404c-2.139-2.139-2.139-5.608 0-7.747l-14.205 14.205c-2.139 2.139-2.139 5.607 0 7.747l37.404 37.404c1.47 1.47 1.47 3.852 0 5.321l-13.664 13.664c-3.02 3.02-1.359 8.19 2.854 8.886l69.363 11.467c3.546.586 6.618-2.486 6.032-6.032z" fill="#ed5469"/><path d="m322.468 182.471h-47.667l-6.559 4.304h-27.686l-3.357-4.304h-47.667c-4.438 0-8.035 3.597-8.035 8.035v130.989c0 4.437 3.597 8.035 8.035 8.035h132.936c4.438 0 8.035-3.597 8.035-8.035v-130.989c0-4.437-3.597-8.035-8.035-8.035z" fill="#ffc365"/><path d="m216.524 321.495v-130.989c0-4.437 3.597-8.035 8.035-8.035h-35.026c-4.438 0-8.035 3.597-8.035 8.035v130.989c0 4.437 3.597 8.035 8.035 8.035h35.026c-4.438-.001-8.035-3.598-8.035-8.035z" fill="#ffa90f"/><path d="m237.2 182.471v53.004c0 2.73 2.213 4.943 4.943 4.943h27.716c2.73 0 4.943-2.213 4.943-4.943v-53.004z" fill="#f27182"/><path d="m258.576 235.476v-53.004h-21.376v53.004c0 2.73 2.213 4.943 4.943 4.943h21.376c-2.73 0-4.943-2.213-4.943-4.943z" fill="#ed5469"/><path d="m260.265 2.191 40.939 57.156c2.487 3.472.006 8.301-4.265 8.301h-19.324c-2.078 0-3.763 1.685-3.763 3.763v52.897c0 3.025-2.453 5.478-5.478 5.478h-24.747c-3.025 0-5.478-2.452-5.478-5.478v-52.897c0-2.078-1.685-3.763-3.763-3.763h-19.324c-4.271 0-6.752-4.83-4.265-8.301l40.939-57.156c2.092-2.921 6.437-2.921 8.529 0z" fill="#6ed6a2"/><path d="m258.237 124.308v-52.897c0-2.078-1.685-3.763-3.763-3.763h-19.324c-4.271 0-6.752-4.83-4.265-8.301l35.159-49.087-5.779-8.068c-2.093-2.922-6.438-2.922-8.53 0l-40.939 57.156c-2.487 3.472-.006 8.301 4.265 8.301h19.324c2.078 0 3.763 1.685 3.763 3.763v52.897c0 3.026 2.453 5.478 5.478 5.478h20.088c-3.024-.001-5.477-2.453-5.477-5.479z" fill="#00c479"/><path d="m260.265 509.809 40.939-57.156c2.487-3.472.006-8.301-4.265-8.301h-19.324c-2.078 0-3.763-1.685-3.763-3.763v-52.897c0-3.025-2.453-5.478-5.478-5.478h-24.747c-3.025 0-5.478 2.452-5.478 5.478v52.897c0 2.078-1.685 3.763-3.763 3.763h-19.324c-4.271 0-6.752 4.83-4.265 8.301l40.939 57.156c2.092 2.922 6.437 2.922 8.529 0z" fill="#9790cc"/><path d="m260.265 509.809 5.779-8.069-35.159-49.087c-2.487-3.472-.006-8.301 4.265-8.301h19.324c2.078 0 3.763-1.685 3.763-3.763v-52.897c0-3.026 2.453-5.478 5.478-5.478h-20.088c-3.025 0-5.478 2.452-5.478 5.478v52.897c0 2.078-1.685 3.763-3.763 3.763h-19.324c-4.271 0-6.752 4.83-4.265 8.301l40.939 57.156c2.092 2.922 6.437 2.922 8.529 0z" fill="#8479c2"/><path d="m438.486 79.546-11.467 69.363c-.696 4.213-5.866 5.874-8.886 2.854l-13.664-13.664c-1.469-1.469-3.852-1.469-5.321 0l-37.404 37.404c-2.139 2.139-5.608 2.139-7.747 0l-17.499-17.499c-2.139-2.139-2.139-5.608 0-7.747l37.404-37.404c1.47-1.47 1.47-3.852 0-5.321l-13.664-13.664c-3.02-3.02-1.359-8.189 2.854-8.886l69.363-11.467c3.545-.587 6.617 2.485 6.031 6.031z" fill="#00d2fc"/><path d="m350.702 164.461 37.404-37.404c1.47-1.47 1.47-3.852 0-5.321l-13.664-13.664c-3.02-3.02-1.359-8.189 2.854-8.886l59.571-9.849 1.619-9.792c.586-3.546-2.486-6.618-6.032-6.032l-69.363 11.467c-4.213.696-5.874 5.866-2.854 8.886l13.664 13.664c1.469 1.469 1.469 3.852 0 5.321l-37.404 37.404c-2.139 2.139-2.139 5.608 0 7.747l14.205 14.205c-2.139-2.138-2.139-5.606 0-7.746z" fill="#00c2fb"/><path d="m79.546 438.486 69.363-11.467c4.213-.696 5.874-5.866 2.854-8.886l-13.664-13.664c-1.469-1.469-1.469-3.852 0-5.321l37.404-37.404c2.139-2.139 2.139-5.608 0-7.747l-17.499-17.499c-2.139-2.139-5.608-2.139-7.747 0l-37.404 37.404c-1.47 1.47-3.852 1.47-5.321 0l-13.664-13.664c-3.02-3.02-8.189-1.359-8.886 2.854l-11.467 69.363c-.587 3.545 2.485 6.617 6.031 6.031z" fill="#6ed6a2"/><path d="m79.546 438.486 9.792-1.619 9.848-59.571c.696-4.213 5.866-5.874 8.886-2.854l13.664 13.664c1.469 1.469 3.852 1.469 5.321 0l37.404-37.404c2.139-2.139 5.608-2.139 7.747 0l-14.205-14.205c-2.139-2.139-5.607-2.139-7.747 0l-37.404 37.404c-1.47 1.47-3.852 1.47-5.321 0l-13.664-13.664c-3.02-3.02-8.19-1.359-8.886 2.854l-11.467 69.363c-.586 3.546 2.486 6.618 6.032 6.032z" fill="#00c479"/></g></svg>