<?xml version="1.0" standalone="no"?><!DOCTYPE svg PUBLIC "-//W3C//DTD SVG 1.1//EN" "http://www.w3.org/Graphics/SVG/1.1/DTD/svg11.dtd"><svg t="1623741687615" class="icon" viewBox="0 0 1024 1024" version="1.1" xmlns="http://www.w3.org/2000/svg" p-id="27798" xmlns:xlink="http://www.w3.org/1999/xlink" width="24" height="24"><defs><style type="text/css"></style></defs><path d="M863.085714 351.085714l117.028571-146.285714-117.028571-146.285714L515.657143 58.514286l-7.314286 0L394.971429 58.514286c-32.329143 0-58.514286 26.185143-58.514286 58.514286l0 175.542857c0 32.299886 26.185143 58.514286 58.514286 58.514286l58.514286 0 0 58.514286L160.914286 409.6l-117.028571 146.285714 117.028571 146.285714 292.571429 0 0 237.714286C453.485714 970.196114 478.032457 994.742857 508.342857 994.742857l7.314286 0C545.967543 994.742857 570.514286 970.196114 570.514286 939.885714L570.514286 702.171429l234.057143 0c32.329143 0 58.514286-26.2144 58.514286-58.514286l0-175.542857c0-32.329143-26.185143-58.514286-58.514286-58.514286l-234.057143 0 0-58.514286L863.085714 351.085714z" p-id="27799"></path></svg>