<?xml version="1.0" standalone="no"?><!DOCTYPE svg PUBLIC "-//W3C//DTD SVG 1.1//EN" "http://www.w3.org/Graphics/SVG/1.1/DTD/svg11.dtd"><svg t="1623741304954" class="icon" viewBox="0 0 1024 1024" version="1.1" xmlns="http://www.w3.org/2000/svg" p-id="3609" xmlns:xlink="http://www.w3.org/1999/xlink" width="24" height="24"><defs><style type="text/css"></style></defs><path d="M965.4272 84.0704a34.2016 34.2016 0 0 0-25.6-25.6A573.7472 573.7472 0 0 0 348.16 277.7088a34.6112 34.6112 0 0 1-19.6608 13.1072A448.512 448.512 0 0 0 119.0912 409.6a458.4448 458.4448 0 0 0-70.3488 90.4192c-16.4864 27.9552 11.8784 60.928 42.3936 49.664 48.128-17.8176 100.1472-26.5216 153.7024-26.624-0.7168 4.608-1.7408 9.216-2.4576 13.7216a2310.8608 2310.8608 0 0 0 244.736 244.736l13.6192-2.4576c0 53.5552-8.8064 105.5744-26.624 153.7024-11.264 30.5152 21.8112 58.88 49.7664 42.3936 32.9728-19.5584 63.3856-43.2128 90.4192-70.3488a448.7168 448.7168 0 0 0 118.9888-209.408 34.7136 34.7136 0 0 1 13.1072-19.6608A573.8496 573.8496 0 0 0 965.4272 83.968zM731.648 456.4992a116.0192 116.0192 0 1 1-164.1472-164.1472 116.0192 116.0192 0 0 1 164.1472 164.1472zM117.1456 766.976c-32.0512 31.9488-100.352 163.0208-61.7472 201.728 38.6048 38.5024 169.6768-29.9008 201.728-61.8496 31.9488-32.0512 26.624-89.2928-12.0832-127.8976-38.6048-38.6048-95.8464-44.032-127.8976-11.9808z" p-id="3610"></path></svg>