<svg xmlns="http://www.w3.org/2000/svg" viewBox="0 0 33.5 22.27"><defs><style>.cls-1{fill:#2c3046;}.cls-2{fill:#ffad40;}</style></defs><g id="Layer_2" data-name="Layer 2"><g id="Layer_1-2" data-name="Layer 1"><path class="cls-1" d="M23.9,22.27a.88.88,0,0,1-.32-.07.73.73,0,0,1-.43-.69v-4H13.59a.75.75,0,0,1,0-1.5H23.91a.75.75,0,0,1,.53.22.71.71,0,0,1,.22.53v3.14L31.58,14,24.65,8.21V11.3a.76.76,0,0,1-.75.76H9.75v4a.75.75,0,0,1-.44.69.77.77,0,0,1-.82-.13L.25,9.14A.73.73,0,0,1,0,8.59.75.75,0,0,1,.23,8L8.37.21A.75.75,0,0,1,9.19.06a.78.78,0,0,1,.46.69l0,4.35H19.81a.76.76,0,1,1,0,1.51H8.92a.75.75,0,0,1-.75-.75l0-3.35L1.86,8.57l6.39,5.8V11.3A.75.75,0,0,1,9,10.55H23.15v-4a.76.76,0,0,1,.43-.68.75.75,0,0,1,.8.11l8.85,7.43a.75.75,0,0,1,0,1.15l-8.85,7.49A.72.72,0,0,1,23.9,22.27Z"/><path class="cls-2" d="M23.9,12.06H9.75v4a.75.75,0,0,1-.44.69.77.77,0,0,1-.82-.13L.25,9.14A.73.73,0,0,1,0,8.59.75.75,0,0,1,.23,8L8.37.21A.75.75,0,0,1,9.19.06a.78.78,0,0,1,.46.69l0,4.35H19.81a.76.76,0,1,1,0,1.51H8.92a.75.75,0,0,1-.75-.75l0-3.35L1.86,8.57l6.39,5.8V11.3A.75.75,0,0,1,9,10.55H23.15S23.1,12.38,23.9,12.06Z"/></g></g></svg>