<svg xmlns="http://www.w3.org/2000/svg" viewBox="0 0 26 34.54"><defs><style>.cls-1{fill:#2c3046;}.cls-2{fill:#ffad40;}</style></defs><g id="Layer_2" data-name="Layer 2"><g id="Layer_1-2" data-name="Layer 1"><path class="cls-1" d="M20.07,34.54H2.63A2.63,2.63,0,0,1,0,32V12.11a.74.74,0,0,1,.74-.74.75.75,0,0,1,.75.74V32a1.14,1.14,0,0,0,1.14,1.08H20.07a1.19,1.19,0,0,0,1.14-1.15.75.75,0,0,1,.75-.74.74.74,0,0,1,.74.74A2.66,2.66,0,0,1,20.07,34.54Z"/><path class="cls-1" d="M23.37,31.24H6.4a2.63,2.63,0,0,1-2.63-2.56V8.75A2.63,2.63,0,0,1,6.4,6.19h9.9a.74.74,0,0,1,0,1.48H6.4A1.14,1.14,0,0,0,5.26,8.75V28.68A1.14,1.14,0,0,0,6.4,29.76h17a1.14,1.14,0,0,0,1.14-1.08V8.81a1.19,1.19,0,0,0-1.14-1.14H20.54a.74.74,0,0,1,0-1.48h2.83A2.66,2.66,0,0,1,26,8.81V28.68A2.63,2.63,0,0,1,23.37,31.24Z"/><path class="cls-2" d="M20.07,18.93a.74.74,0,0,1-.74-.74V5.39a3.71,3.71,0,0,0-3.54-3.9,4.24,4.24,0,0,0-4.17,3.9.74.74,0,1,1-1.48,0A5.73,5.73,0,0,1,15.76,0a5.18,5.18,0,0,1,5,5.39v12.8A.74.74,0,0,1,20.07,18.93Z"/><path class="cls-2" d="M17.24,22.7a3.42,3.42,0,0,1-3.57-3.57v-9a.75.75,0,0,1,1.49,0v9a2,2,0,0,0,2.08,2.08,2,2,0,0,0,2.09-2.08.74.74,0,0,1,1.48,0A3.41,3.41,0,0,1,17.24,22.7Z"/></g></g></svg>