<svg width="116" height="134" viewBox="0 0 116 134" fill="none" xmlns="http://www.w3.org/2000/svg">
<path d="M73.04 49.72C73.04 48.61 73.11 47.46 73.11 46.26C73.0766 42.8361 72.7116 39.4235 72.02 36.07C70.8036 30.3217 69.0595 24.6979 66.81 19.27C64.1852 12.7872 61.0729 6.51258 57.5 0.5C53.9345 6.50812 50.8257 12.7758 48.1999 19.25C45.9516 24.6792 44.2043 30.3026 42.98 36.05C42.2877 39.4067 41.9227 42.8228 41.89 46.25C41.89 47.45 41.8899 48.6 41.9599 49.71C37.458 52.3448 33.7007 56.082 31.0415 60.5696C28.3824 65.0572 26.909 70.1477 26.76 75.3618C26.611 80.576 27.7912 85.7423 30.1897 90.3745C32.5881 95.0067 36.1259 98.9523 40.4699 101.84V84.73L57.4699 74.89L74.4699 84.73V101.85C78.814 98.9623 82.3519 95.0167 84.7503 90.3845C87.1488 85.7523 88.3291 80.586 88.18 75.3718C88.031 70.1577 86.5576 65.0672 83.8984 60.5796C81.2393 56.092 77.4819 52.3549 72.98 49.72H73.04Z" fill="white"/>
<path d="M71.5 20.23C73.7379 25.9541 75.3865 31.8915 76.4201 37.95C85.0024 42.2139 91.8916 49.2533 95.9697 57.9255C100.048 66.5977 101.075 76.3936 98.8855 85.7232C96.6956 95.0529 91.4167 103.369 83.9059 109.32C76.3951 115.272 67.0932 118.511 57.51 118.511C47.9268 118.511 38.6249 115.272 31.1141 109.32C23.6033 103.369 18.3245 95.0529 16.1346 85.7232C13.9447 76.3936 14.9721 66.5977 19.0502 57.9255C23.1284 49.2533 30.0177 42.2139 38.6 37.95C39.6322 31.8879 41.2808 25.9471 43.52 20.22C29.9083 23.6357 18.0149 31.9098 10.0792 43.4845C2.1436 55.0591 -1.28675 69.1356 0.434097 83.0634C2.15495 96.9913 8.90825 109.81 19.4224 119.105C29.9366 128.4 43.4863 133.53 57.52 133.53C71.5538 133.53 85.1034 128.4 95.6176 119.105C106.132 109.81 112.885 96.9913 114.606 83.0634C116.327 69.1356 112.896 55.0591 104.961 43.4845C97.0252 31.9098 85.1318 23.6357 71.52 20.22L71.5 20.23Z" fill="white"/>
</svg>
