<svg width="117" height="134" viewBox="0 0 117 134" fill="none" xmlns="http://www.w3.org/2000/svg">
<path d="M74.04 49.72C74.09 48.61 74.11 47.46 74.11 46.26C74.0767 42.8361 73.7117 39.4235 73.02 36.07C71.8036 30.3217 70.0595 24.6979 67.81 19.27C65.1851 12.7872 62.0729 6.51258 58.5 0.5C54.9345 6.50812 51.8258 12.7758 49.2 19.25C46.9517 24.6792 45.2044 30.3026 43.98 36.05C43.2877 39.4067 42.9227 42.8228 42.89 46.25C42.89 47.45 42.89 48.6 42.96 49.71C38.4577 52.3469 34.7006 56.0865 32.0427 60.5766C29.3848 65.0666 27.9135 70.1593 27.7674 75.375C27.6214 80.5907 28.8054 85.7578 31.2078 90.3895C33.6103 95.0213 37.1523 98.9652 41.5 101.85V84.73L58.5 74.89L75.5 84.73V101.85C79.8441 98.9623 83.3819 95.0167 85.7804 90.3845C88.1788 85.7523 89.3591 80.586 89.21 75.3718C89.061 70.1577 87.5876 65.0672 84.9284 60.5796C82.2693 56.092 78.5119 52.3549 74.01 49.72H74.04Z" fill="#D28203"/>
<path d="M72.5 20.23C74.7379 25.9541 76.3864 31.8915 77.42 37.95C86.0023 42.2139 92.8917 49.2533 96.9698 57.9255C101.048 66.5977 102.075 76.3936 99.8855 85.7232C97.6955 95.0529 92.4168 103.369 84.906 109.32C77.3952 115.272 68.0932 118.511 58.51 118.511C48.9268 118.511 39.6249 115.272 32.1141 109.32C24.6033 103.369 19.3245 95.0529 17.1346 85.7232C14.9447 76.3936 15.9721 66.5977 20.0502 57.9255C24.1284 49.2533 31.0177 42.2139 39.6 37.95C40.6258 31.8886 42.2676 25.9478 44.5 20.22C30.8883 23.6357 18.9949 31.9098 11.0592 43.4845C3.12358 55.0591 -0.306773 69.1356 1.41408 83.0634C3.13493 96.9913 9.88829 109.81 20.4025 119.105C30.9167 128.4 44.4663 133.53 58.5 133.53C72.5338 133.53 86.0834 128.4 96.5975 119.105C107.112 109.81 113.865 96.9913 115.586 83.0634C117.307 69.1356 113.876 55.0591 105.941 43.4845C98.0052 31.9098 86.1117 23.6357 72.5 20.22V20.23Z" fill="#D28203"/>
</svg>
