<svg width="116" height="134" viewBox="0 0 116 134" fill="none" xmlns="http://www.w3.org/2000/svg">
<path d="M73.06 49.22C73.11 48.11 73.13 46.96 73.13 45.76C73.0967 42.3361 72.7317 38.9235 72.0401 35.57C70.8236 29.8217 69.0795 24.1979 66.83 18.77C64.2052 12.2872 61.0929 6.01258 57.52 0C53.9546 6.00812 50.8458 12.2758 48.2201 18.75C45.9717 24.1792 44.2244 29.8026 43 35.55C42.3077 38.9067 41.9427 42.3228 41.9101 45.75C41.9101 46.95 41.9101 48.1 41.9801 49.21C37.4777 51.8469 33.7206 55.5865 31.0627 60.0766C28.4048 64.5666 26.9335 69.6593 26.7874 74.875C26.6414 80.0907 27.8254 85.2578 30.2279 89.8895C32.6304 94.5213 36.1723 98.4652 40.52 101.35V84.23L57.52 74.39L74.52 84.23V101.35C78.8641 98.4623 82.4019 94.5167 84.8004 89.8845C87.1988 85.2523 88.3791 80.086 88.2301 74.8718C88.081 69.6577 86.6076 64.5672 83.9484 60.0796C81.2893 55.592 77.532 51.8549 73.0301 49.22H73.06Z" fill="#FF9E04"/>
<path d="M71.5202 19.73C73.7581 25.4541 75.4066 31.3915 76.4401 37.45C85.0225 41.7139 91.9118 48.7533 95.9899 57.4255C100.068 66.0977 101.096 75.8936 98.9056 85.2232C96.7157 94.5529 91.4369 102.869 83.9261 108.82C76.4153 114.772 67.1134 118.011 57.5302 118.011C47.947 118.011 38.645 114.772 31.1342 108.82C23.6234 102.869 18.3447 94.5529 16.1547 85.2232C13.9648 75.8936 14.9923 66.0977 19.0704 57.4255C23.1485 48.7533 30.0378 41.7139 38.6201 37.45C39.6459 31.3886 41.2878 25.4478 43.5202 19.72C29.9084 23.1357 18.015 31.4098 10.0794 42.9845C2.14372 54.5591 -1.28663 68.6356 0.434219 82.5634C2.15507 96.4913 8.90843 109.31 19.4226 118.605C29.9368 127.9 43.4864 133.03 57.5202 133.03C71.5539 133.03 85.1035 127.9 95.6177 118.605C106.132 109.31 112.885 96.4913 114.606 82.5634C116.327 68.6356 112.897 54.5591 104.961 42.9845C97.0253 31.4098 85.1319 23.1357 71.5202 19.72V19.73Z" fill="#FF9E04"/>
</svg>
