<svg id="Capa_1" enable-background="new 0 0 512 512" height="512" viewBox="0 0 512 512" width="512"
  xmlns="http://www.w3.org/2000/svg">
    <style type="text/css"><![CDATA[
  .cc-lead{fill: #FF9E04;}
]]></style>
  <g class="cc-lead">
    <path d="m61 392c-33.091 0-61 26.909-61 60 0 32.446 26.884 58.96 61 59.971l150 .029v-30h-44.941c-46.06 0-47.115-46.996-48.486-49.995-8.453-23.936-31.187-40.005-56.573-40.005z"/>
    <path d="m452 392c-25.386 0-49.12 16.069-57.572 40.005-1.371 2.999-2.426 49.995-48.486 49.995h-44.942v30h151c33.091 0 60-26.909 60-60s-26.909-60-60-60z"/>
    <path d="m121 279.5v112.5h30v-30h32.371l-27.22-108.86z"/>
    <path d="m391 392c0-41.667 0-89.319 0-112.5l-35.151-26.36-27.22 108.86h32.371v30z"/>
    <path d="m301 392h-90v2.578c0 30.908 12.539 61.172 34.395 83.027l10.605 10.606 10.605-10.605c21.856-21.856 34.395-52.12 34.395-83.028z"/>
    <path d="m256 0-10.605 10.605c-23.464 23.458-41.168 50.428-53.041 79.395h127.291c-11.873-28.967-29.577-55.937-53.04-79.395z"/>
    <path d="m182.318 234.104 31.978 127.896h83.408l31.978-127.896c9.551-38.188 8.928-78.251-.201-114.104h-146.961c-9.13 35.854-9.752 75.916-.202 114.104z"/>
  </g>
</svg>