<?xml version="1.0" standalone="no"?><!DOCTYPE svg PUBLIC "-//W3C//DTD SVG 1.1//EN" "http://www.w3.org/Graphics/SVG/1.1/DTD/svg11.dtd"><svg t="1623572425327" class="icon" viewBox="0 0 1246 1024" version="1.1" xmlns="http://www.w3.org/2000/svg" p-id="3373" width="29.203125" height="24" xmlns:xlink="http://www.w3.org/1999/xlink"><defs><style type="text/css"></style></defs><path d="M801.836522 478.675478a17.586087 17.586087 0 0 1-4.051479-24.397913 17.074087 17.074087 0 0 1 25.533218-2.916174l9.305043 7.457392 123.970783-145.341218-130.426435-106.985739a82.365217 82.365217 0 0 1-117.470609-5.787826 85.036522 85.036522 0 0 1-10.217739-99.149913L574.174609 0l-121.054609 141.846261c6.41113 6.121739 7.123478 16.228174 1.669565 23.240348a17.118609 17.118609 0 0 1-24.064 2.938434L-0.022261 672.656696l130.515478 107.008a82.432 82.432 0 0 1 117.470609 6.277565 85.125565 85.125565 0 0 1 10.24 98.437565l124.304696 101.554087 427.52-500.691478-8.192-6.566957zM475.38087 184.05287a17.14087 17.14087 0 0 1 24.286608-2.827131l33.413565 26.624a17.67513 17.67513 0 0 1 2.782609 24.576l-0.066782 0.066783a17.14087 17.14087 0 0 1-24.197566 2.782608l-0.022261-0.02226-33.413565-26.60174a17.719652 17.719652 0 0 1-2.782608-24.59826z m6.032695 425.293913l-41.427478 84.635826-44.544-79.003826-87.529739-11.264 59.570087-71.880348-12.8-91.737044 81.185391 33.858783 79.738435-45.122783-9.371826 93.094957 61.684869 64.111304-86.505739 23.307131z m135.524174-309.203479a17.096348 17.096348 0 0 1-24.242087 2.849392h-0.022261l-33.435826-26.646261a17.697391 17.697391 0 0 1-2.782608-24.598261 17.14087 17.14087 0 0 1 24.286608-2.80487l33.413565 26.624a17.65287 17.65287 0 0 1 2.671305 24.486957l0.111304 0.089043z m81.185391 66.916174l-0.333913 0.467479 0.111305 0.356173a17.14087 17.14087 0 0 1-24.264348 2.849392l-0.044522-0.022261-33.413565-26.624c-7.635478-5.87687-9.126957-16.918261-3.33913-24.665044s16.673391-9.282783 24.308869-3.428174l33.391304 26.624a17.586087 17.586087 0 0 1 3.584 24.442435z m80.896 67.717565a0.890435 0.890435 0 0 1-0.178087 0.222609l0.133566 0.578783a17.14087 17.14087 0 0 1-24.264348 2.82713l-0.022261-0.022261-33.413565-26.624c-7.657739-5.854609-9.171478-16.896-3.383652-24.642782s16.673391-9.305043 24.353391-3.428174l33.391304 26.624a17.586087 17.586087 0 0 1 3.383652 24.464695z m395.419827 75.842783c-45.679304 12.733217-92.850087-14.447304-105.405218-60.727652a87.396174 87.396174 0 0 1 34.905044-95.209739l-68.251826-151.574261-86.082783 36.574609 74.952348 63.532521-104.448 124.126609c3.650783 1.78087 6.611478 4.763826 8.347826 8.45913l19.166609 40.314435a18.16487 18.16487 0 0 1-6.700522 24.598261 17.65287 17.65287 0 0 1-25.510957-9.371826l-17.830956-37.376-140.354783 165.353739-21.147826 33.858783 28.40487 87.574261-90.557218-18.521044-9.305043 7.101218-252.616348 294.511304 621.412174-263.501913-4.674783-9.794783a18.253913 18.253913 0 0 1 7.991652-24.242087 17.741913 17.741913 0 0 1 24.286609 8.993392l5.36487 11.28626L1246.608696 670.163478l-72.169739-159.543652z m-213.771131 82.67687a22.438957 22.438957 0 0 1-1.179826-2.56v0.111304l-19.144348-40.18087a18.142609 18.142609 0 0 1 10.462609-23.240347 17.719652 17.719652 0 0 1 21.726609 8.013913l19.166608 40.047304a18.18713 18.18713 0 0 1-6.722782 24.620522 17.697391 17.697391 0 0 1-24.30887-6.811826z m66.738087 106.317913a17.67513 17.67513 0 0 1-23.596522-8.681739l-19.144348-40.292174a18.075826 18.075826 0 0 1 10.48487-23.218087 17.67513 17.67513 0 0 1 21.726609 7.991652l18.810435 40.180869a18.120348 18.120348 0 0 1-8.281044 24.019479z" p-id="3374" fill="#262A41"></path></svg>